<?xml version="1.0" encoding="us-ascii" standalone="no"?><svg xmlns="http://www.w3.org/2000/svg" xmlns:xlink="http://www.w3.org/1999/xlink" contentStyleType="text/css" height="1326px" preserveAspectRatio="none" style="width:1961px;height:1326px;background:#FFFFFF;" version="1.1" viewBox="0 0 1961 1326" width="1961px" zoomAndPan="magnify"><defs/><g><text fill="#000000" font-family="sans-serif" font-size="14" font-weight="bold" lengthAdjust="spacing" textLength="517" x="723.25" y="28.5352">Sequence Diagram For Video Processing &amp; Highlight Generation Level II</text><rect fill="none" height="932.6738" style="stroke:#000000;stroke-width:1.5;" width="1944.5" x="10" y="236.9082"/><line style="stroke:#181818;stroke-width:0.5;stroke-dasharray:5.0,5.0;" x1="38" x2="38" y1="118.9766" y2="1245.2031"/><line style="stroke:#181818;stroke-width:0.5;stroke-dasharray:5.0,5.0;" x1="337" x2="337" y1="118.9766" y2="1245.2031"/><line style="stroke:#181818;stroke-width:0.5;stroke-dasharray:5.0,5.0;" x1="655.5" x2="655.5" y1="118.9766" y2="1245.2031"/><line style="stroke:#181818;stroke-width:0.5;stroke-dasharray:5.0,5.0;" x1="892" x2="892" y1="118.9766" y2="1245.2031"/><line style="stroke:#181818;stroke-width:0.5;stroke-dasharray:5.0,5.0;" x1="1214.5" x2="1214.5" y1="118.9766" y2="1245.2031"/><line style="stroke:#181818;stroke-width:0.5;stroke-dasharray:5.0,5.0;" x1="1482.5" x2="1482.5" y1="118.9766" y2="1245.2031"/><text fill="#000000" font-family="sans-serif" font-size="14" lengthAdjust="spacing" textLength="31" x="20" y="116.0234">User</text><ellipse cx="38.5" cy="50.9883" fill="#E2E2F0" rx="8" ry="8" style="stroke:#181818;stroke-width:0.5;"/><path d="M38.5,58.9883 L38.5,85.9883 M25.5,66.9883 L51.5,66.9883 M38.5,85.9883 L25.5,100.9883 M38.5,85.9883 L51.5,100.9883 " fill="none" style="stroke:#181818;stroke-width:0.5;"/><text fill="#000000" font-family="sans-serif" font-size="14" lengthAdjust="spacing" textLength="31" x="20" y="1257.7383">User</text><ellipse cx="38.5" cy="1269.1914" fill="#E2E2F0" rx="8" ry="8" style="stroke:#181818;stroke-width:0.5;"/><path d="M38.5,1277.1914 L38.5,1304.1914 M25.5,1285.1914 L51.5,1285.1914 M38.5,1304.1914 L25.5,1319.1914 M38.5,1304.1914 L51.5,1319.1914 " fill="none" style="stroke:#181818;stroke-width:0.5;"/><rect fill="#E2E2F0" height="30.4883" rx="2.5" ry="2.5" style="stroke:#181818;stroke-width:0.5;" width="117" x="279" y="87.4883"/><text fill="#000000" font-family="sans-serif" font-size="14" lengthAdjust="spacing" textLength="103" x="286" y="108.0234">Command Line</text><rect fill="#E2E2F0" height="30.4883" rx="2.5" ry="2.5" style="stroke:#181818;stroke-width:0.5;" width="117" x="279" y="1244.2031"/><text fill="#000000" font-family="sans-serif" font-size="14" lengthAdjust="spacing" textLength="103" x="286" y="1264.7383">Command Line</text><rect fill="#E2E2F0" height="30.4883" rx="2.5" ry="2.5" style="stroke:#181818;stroke-width:0.5;" width="146" x="582.5" y="87.4883"/><text fill="#000000" font-family="sans-serif" font-size="14" lengthAdjust="spacing" textLength="132" x="589.5" y="108.0234">video_processor.py</text><rect fill="#E2E2F0" height="30.4883" rx="2.5" ry="2.5" style="stroke:#181818;stroke-width:0.5;" width="146" x="582.5" y="1244.2031"/><text fill="#000000" font-family="sans-serif" font-size="14" lengthAdjust="spacing" textLength="132" x="589.5" y="1264.7383">video_processor.py</text><rect fill="#E2E2F0" height="30.4883" rx="2.5" ry="2.5" style="stroke:#181818;stroke-width:0.5;" width="125" x="830" y="87.4883"/><text fill="#000000" font-family="sans-serif" font-size="14" lengthAdjust="spacing" textLength="111" x="837" y="108.0234">PROCESS_VIDEO</text><rect fill="#E2E2F0" height="30.4883" rx="2.5" ry="2.5" style="stroke:#181818;stroke-width:0.5;" width="125" x="830" y="1244.2031"/><text fill="#000000" font-family="sans-serif" font-size="14" lengthAdjust="spacing" textLength="111" x="837" y="1264.7383">PROCESS_VIDEO</text><rect fill="#E2E2F0" height="30.4883" rx="2.5" ry="2.5" style="stroke:#181818;stroke-width:0.5;" width="110" x="1159.5" y="87.4883"/><text fill="#000000" font-family="sans-serif" font-size="14" lengthAdjust="spacing" textLength="96" x="1166.5" y="108.0234">PROCESS_FILE</text><rect fill="#E2E2F0" height="30.4883" rx="2.5" ry="2.5" style="stroke:#181818;stroke-width:0.5;" width="110" x="1159.5" y="1244.2031"/><text fill="#000000" font-family="sans-serif" font-size="14" lengthAdjust="spacing" textLength="96" x="1166.5" y="1264.7383">PROCESS_FILE</text><rect fill="#E2E2F0" height="30.4883" rx="2.5" ry="2.5" style="stroke:#181818;stroke-width:0.5;" width="222" x="1371.5" y="87.4883"/><text fill="#000000" font-family="sans-serif" font-size="14" lengthAdjust="spacing" textLength="208" x="1378.5" y="108.0234">PROCESS_FILE_MULTI_THREAD</text><rect fill="#E2E2F0" height="30.4883" rx="2.5" ry="2.5" style="stroke:#181818;stroke-width:0.5;" width="222" x="1371.5" y="1244.2031"/><text fill="#000000" font-family="sans-serif" font-size="14" lengthAdjust="spacing" textLength="208" x="1378.5" y="1264.7383">PROCESS_FILE_MULTI_THREAD</text><polygon fill="#181818" points="325.5,146.2871,335.5,150.2871,325.5,154.2871,329.5,150.2871" style="stroke:#181818;stroke-width:1.0;"/><line style="stroke:#181818;stroke-width:1.0;" x1="38.5" x2="331.5" y1="150.2871" y2="150.2871"/><text fill="#000000" font-family="sans-serif" font-size="13" lengthAdjust="spacing" textLength="275" x="45.5" y="145.5449">Runs script with video_path and --function</text><polygon fill="#181818" points="643.5,175.5977,653.5,179.5977,643.5,183.5977,647.5,179.5977" style="stroke:#181818;stroke-width:1.0;"/><line style="stroke:#181818;stroke-width:1.0;" x1="337.5" x2="649.5" y1="179.5977" y2="179.5977"/><text fill="#000000" font-family="sans-serif" font-size="13" lengthAdjust="spacing" textLength="294" x="344.5" y="174.8555">Parses arguments (video_path, function_name)</text><line style="stroke:#181818;stroke-width:1.0;" x1="655.5" x2="697.5" y1="208.9082" y2="208.9082"/><line style="stroke:#181818;stroke-width:1.0;" x1="697.5" x2="697.5" y1="208.9082" y2="221.9082"/><line style="stroke:#181818;stroke-width:1.0;" x1="656.5" x2="697.5" y1="221.9082" y2="221.9082"/><polygon fill="#181818" points="666.5,217.9082,656.5,221.9082,666.5,225.9082,662.5,221.9082" style="stroke:#181818;stroke-width:1.0;"/><text fill="#000000" font-family="sans-serif" font-size="13" lengthAdjust="spacing" textLength="155" x="662.5" y="204.166">Validates function_name</text><path d="M10,236.9082 L72,236.9082 L72,244.2188 L62,254.2188 L10,254.2188 L10,236.9082 " fill="#EEEEEE" style="stroke:#000000;stroke-width:1.5;"/><rect fill="none" height="932.6738" style="stroke:#000000;stroke-width:1.5;" width="1944.5" x="10" y="236.9082"/><text fill="#000000" font-family="sans-serif" font-size="13" font-weight="bold" lengthAdjust="spacing" textLength="17" x="25" y="250.4766">alt</text><text fill="#000000" font-family="sans-serif" font-size="11" font-weight="bold" lengthAdjust="spacing" textLength="221" x="87" y="249.543">[function_name == "PROCESS_VIDEO"]</text><polygon fill="#181818" points="880.5,271.5293,890.5,275.5293,880.5,279.5293,884.5,275.5293" style="stroke:#181818;stroke-width:1.0;"/><line style="stroke:#181818;stroke-width:1.0;" x1="655.5" x2="886.5" y1="275.5293" y2="275.5293"/><text fill="#000000" font-family="sans-serif" font-size="13" lengthAdjust="spacing" textLength="213" x="662.5" y="270.7871">Calls PROCESS_VIDEO(video_path)</text><line style="stroke:#181818;stroke-width:1.0;" x1="892.5" x2="934.5" y1="304.8398" y2="304.8398"/><line style="stroke:#181818;stroke-width:1.0;" x1="934.5" x2="934.5" y1="304.8398" y2="317.8398"/><line style="stroke:#181818;stroke-width:1.0;" x1="893.5" x2="934.5" y1="317.8398" y2="317.8398"/><polygon fill="#181818" points="903.5,313.8398,893.5,317.8398,903.5,321.8398,899.5,317.8398" style="stroke:#181818;stroke-width:1.0;"/><text fill="#000000" font-family="sans-serif" font-size="13" lengthAdjust="spacing" textLength="222" x="899.5" y="300.0977">get_scoreboard_coordinates(frame)</text><line style="stroke:#181818;stroke-width:1.0;" x1="892.5" x2="934.5" y1="347.1504" y2="347.1504"/><line style="stroke:#181818;stroke-width:1.0;" x1="934.5" x2="934.5" y1="347.1504" y2="360.1504"/><line style="stroke:#181818;stroke-width:1.0;" x1="893.5" x2="934.5" y1="360.1504" y2="360.1504"/><polygon fill="#181818" points="903.5,356.1504,893.5,360.1504,903.5,364.1504,899.5,360.1504" style="stroke:#181818;stroke-width:1.0;"/><text fill="#000000" font-family="sans-serif" font-size="13" lengthAdjust="spacing" textLength="259" x="899.5" y="342.4082">extract_scoreboard(frame, x1, y1, x2, y2)</text><line style="stroke:#181818;stroke-width:1.0;" x1="892.5" x2="934.5" y1="389.4609" y2="389.4609"/><line style="stroke:#181818;stroke-width:1.0;" x1="934.5" x2="934.5" y1="389.4609" y2="402.4609"/><line style="stroke:#181818;stroke-width:1.0;" x1="893.5" x2="934.5" y1="402.4609" y2="402.4609"/><polygon fill="#181818" points="903.5,398.4609,893.5,402.4609,903.5,406.4609,899.5,402.4609" style="stroke:#181818;stroke-width:1.0;"/><text fill="#000000" font-family="sans-serif" font-size="13" lengthAdjust="spacing" textLength="185" x="899.5" y="384.7188">find_scores(extracted_image)</text><line style="stroke:#181818;stroke-width:1.0;" x1="892.5" x2="934.5" y1="431.7715" y2="431.7715"/><line style="stroke:#181818;stroke-width:1.0;" x1="934.5" x2="934.5" y1="431.7715" y2="444.7715"/><line style="stroke:#181818;stroke-width:1.0;" x1="893.5" x2="934.5" y1="444.7715" y2="444.7715"/><polygon fill="#181818" points="903.5,440.7715,893.5,444.7715,903.5,448.7715,899.5,444.7715" style="stroke:#181818;stroke-width:1.0;"/><text fill="#000000" font-family="sans-serif" font-size="13" lengthAdjust="spacing" textLength="308" x="899.5" y="427.0293">convert_to_abs_coordinates(x1, y1, score_cords)</text><line style="stroke:#181818;stroke-width:1.0;" x1="892.5" x2="934.5" y1="474.082" y2="474.082"/><line style="stroke:#181818;stroke-width:1.0;" x1="934.5" x2="934.5" y1="474.082" y2="487.082"/><line style="stroke:#181818;stroke-width:1.0;" x1="893.5" x2="934.5" y1="487.082" y2="487.082"/><polygon fill="#181818" points="903.5,483.082,893.5,487.082,903.5,491.082,899.5,487.082" style="stroke:#181818;stroke-width:1.0;"/><text fill="#000000" font-family="sans-serif" font-size="13" lengthAdjust="spacing" textLength="257" x="899.5" y="469.3398">plotscores_on_images(frame, abs_cords)</text><line style="stroke:#181818;stroke-width:1.0;" x1="892.5" x2="934.5" y1="516.3926" y2="516.3926"/><line style="stroke:#181818;stroke-width:1.0;" x1="934.5" x2="934.5" y1="516.3926" y2="529.3926"/><line style="stroke:#181818;stroke-width:1.0;" x1="893.5" x2="934.5" y1="529.3926" y2="529.3926"/><polygon fill="#181818" points="903.5,525.3926,893.5,529.3926,903.5,533.3926,899.5,529.3926" style="stroke:#181818;stroke-width:1.0;"/><text fill="#000000" font-family="sans-serif" font-size="13" lengthAdjust="spacing" textLength="279" x="899.5" y="511.6504">add_timestamp_to_frame(frame, timestamp)</text><polygon fill="#181818" points="49.5,554.7031,39.5,558.7031,49.5,562.7031,45.5,558.7031" style="stroke:#181818;stroke-width:1.0;"/><line style="stroke:#181818;stroke-width:1.0;" x1="43.5" x2="891.5" y1="558.7031" y2="558.7031"/><text fill="#000000" font-family="sans-serif" font-size="13" lengthAdjust="spacing" textLength="213" x="55.5" y="553.9609">Stream Videoframe for Debugging</text><line style="stroke:#000000;stroke-width:1.0;stroke-dasharray:2.0,2.0;" x1="10" x2="1954.5" y1="567.7031" y2="567.7031"/><text fill="#000000" font-family="sans-serif" font-size="11" font-weight="bold" lengthAdjust="spacing" textLength="207" x="15" y="578.3379">[function_name == "PROCESS_FILE"]</text><polygon fill="#181818" points="1202.5,598.9688,1212.5,602.9688,1202.5,606.9688,1206.5,602.9688" style="stroke:#181818;stroke-width:1.0;"/><line style="stroke:#181818;stroke-width:1.0;" x1="655.5" x2="1208.5" y1="602.9688" y2="602.9688"/><text fill="#000000" font-family="sans-serif" font-size="13" lengthAdjust="spacing" textLength="199" x="662.5" y="598.2266">Calls PROCESS_FILE(video_path)</text><line style="stroke:#181818;stroke-width:1.0;" x1="1214.5" x2="1256.5" y1="632.2793" y2="632.2793"/><line style="stroke:#181818;stroke-width:1.0;" x1="1256.5" x2="1256.5" y1="632.2793" y2="645.2793"/><line style="stroke:#181818;stroke-width:1.0;" x1="1215.5" x2="1256.5" y1="645.2793" y2="645.2793"/><polygon fill="#181818" points="1225.5,641.2793,1215.5,645.2793,1225.5,649.2793,1221.5,645.2793" style="stroke:#181818;stroke-width:1.0;"/><text fill="#000000" font-family="sans-serif" font-size="13" lengthAdjust="spacing" textLength="179" x="1221.5" y="627.5371">fetch_score_coords(filepath)</text><line style="stroke:#181818;stroke-width:1.0;" x1="1214.5" x2="1256.5" y1="674.5898" y2="674.5898"/><line style="stroke:#181818;stroke-width:1.0;" x1="1256.5" x2="1256.5" y1="674.5898" y2="687.5898"/><line style="stroke:#181818;stroke-width:1.0;" x1="1215.5" x2="1256.5" y1="687.5898" y2="687.5898"/><polygon fill="#181818" points="1225.5,683.5898,1215.5,687.5898,1225.5,691.5898,1221.5,687.5898" style="stroke:#181818;stroke-width:1.0;"/><text fill="#000000" font-family="sans-serif" font-size="13" lengthAdjust="spacing" textLength="223" x="1221.5" y="669.8477">analyze_segment(filepath, cords, 0)</text><line style="stroke:#181818;stroke-width:1.0;" x1="1214.5" x2="1256.5" y1="747.5215" y2="747.5215"/><line style="stroke:#181818;stroke-width:1.0;" x1="1256.5" x2="1256.5" y1="747.5215" y2="760.5215"/><line style="stroke:#181818;stroke-width:1.0;" x1="1215.5" x2="1256.5" y1="760.5215" y2="760.5215"/><polygon fill="#181818" points="1225.5,756.5215,1215.5,760.5215,1225.5,764.5215,1221.5,760.5215" style="stroke:#181818;stroke-width:1.0;"/><text fill="#000000" font-family="sans-serif" font-size="13" lengthAdjust="spacing" textLength="44" x="1221.5" y="712.1582">print(f"</text><text fill="#000000" font-family="sans-serif" font-size="13" lengthAdjust="spacing" textLength="68" x="1221.5" y="727.4688">Completed</text><text fill="#000000" font-family="sans-serif" font-size="13" lengthAdjust="spacing" textLength="222" x="1253.5" y="742.7793">Total Shots Detected {len(results)}")</text><line style="stroke:#181818;stroke-width:1.0;" x1="1214.5" x2="1256.5" y1="789.832" y2="789.832"/><line style="stroke:#181818;stroke-width:1.0;" x1="1256.5" x2="1256.5" y1="789.832" y2="802.832"/><line style="stroke:#181818;stroke-width:1.0;" x1="1215.5" x2="1256.5" y1="802.832" y2="802.832"/><polygon fill="#181818" points="1225.5,798.832,1215.5,802.832,1225.5,806.832,1221.5,802.832" style="stroke:#181818;stroke-width:1.0;"/><text fill="#000000" font-family="sans-serif" font-size="13" lengthAdjust="spacing" textLength="206" x="1221.5" y="785.0898">process_results(filepath, results)</text><polygon fill="#181818" points="666.5,828.1426,656.5,832.1426,666.5,836.1426,662.5,832.1426" style="stroke:#181818;stroke-width:1.0;"/><line style="stroke:#181818;stroke-width:1.0;stroke-dasharray:2.0,2.0;" x1="660.5" x2="1213.5" y1="832.1426" y2="832.1426"/><text fill="#000000" font-family="sans-serif" font-size="13" lengthAdjust="spacing" textLength="48" x="672.5" y="827.4004">Returns</text><line style="stroke:#000000;stroke-width:1.0;stroke-dasharray:2.0,2.0;" x1="10" x2="1954.5" y1="841.1426" y2="841.1426"/><text fill="#000000" font-family="sans-serif" font-size="11" font-weight="bold" lengthAdjust="spacing" textLength="304" x="15" y="851.7773">[function_name == "PROCESS_FILE_MULTI_THREAD"]</text><polygon fill="#181818" points="1470.5,872.4082,1480.5,876.4082,1470.5,880.4082,1474.5,876.4082" style="stroke:#181818;stroke-width:1.0;"/><line style="stroke:#181818;stroke-width:1.0;" x1="655.5" x2="1476.5" y1="876.4082" y2="876.4082"/><text fill="#000000" font-family="sans-serif" font-size="13" lengthAdjust="spacing" textLength="304" x="662.5" y="871.666">Calls PROCESS_FILE_MULTI_THREAD(video_path)</text><line style="stroke:#181818;stroke-width:1.0;" x1="1482.5" x2="1524.5" y1="905.7188" y2="905.7188"/><line style="stroke:#181818;stroke-width:1.0;" x1="1524.5" x2="1524.5" y1="905.7188" y2="918.7188"/><line style="stroke:#181818;stroke-width:1.0;" x1="1483.5" x2="1524.5" y1="918.7188" y2="918.7188"/><polygon fill="#181818" points="1493.5,914.7188,1483.5,918.7188,1493.5,922.7188,1489.5,918.7188" style="stroke:#181818;stroke-width:1.0;"/><text fill="#000000" font-family="sans-serif" font-size="13" lengthAdjust="spacing" textLength="232" x="1489.5" y="900.9766">cords = fetch_score_coords(filepath)</text><line style="stroke:#181818;stroke-width:1.0;" x1="1482.5" x2="1524.5" y1="948.0293" y2="948.0293"/><line style="stroke:#181818;stroke-width:1.0;" x1="1524.5" x2="1524.5" y1="948.0293" y2="961.0293"/><line style="stroke:#181818;stroke-width:1.0;" x1="1483.5" x2="1524.5" y1="961.0293" y2="961.0293"/><polygon fill="#181818" points="1493.5,957.0293,1483.5,961.0293,1493.5,965.0293,1489.5,961.0293" style="stroke:#181818;stroke-width:1.0;"/><text fill="#000000" font-family="sans-serif" font-size="13" lengthAdjust="spacing" textLength="453" x="1489.5" y="943.2871">split_video(filepath, SEGMENT_SIZE, tempfolder, "segments_%03d.mp4")</text><line style="stroke:#181818;stroke-width:1.0;" x1="1482.5" x2="1524.5" y1="990.3398" y2="990.3398"/><line style="stroke:#181818;stroke-width:1.0;" x1="1524.5" x2="1524.5" y1="990.3398" y2="1003.3398"/><line style="stroke:#181818;stroke-width:1.0;" x1="1483.5" x2="1524.5" y1="1003.3398" y2="1003.3398"/><polygon fill="#181818" points="1493.5,999.3398,1483.5,1003.3398,1493.5,1007.3398,1489.5,1003.3398" style="stroke:#181818;stroke-width:1.0;"/><text fill="#000000" font-family="sans-serif" font-size="13" lengthAdjust="spacing" textLength="330" x="1489.5" y="985.5977">analayze_segments_with_threads(tempfolder, cords)</text><line style="stroke:#181818;stroke-width:1.0;" x1="1482.5" x2="1524.5" y1="1032.6504" y2="1032.6504"/><line style="stroke:#181818;stroke-width:1.0;" x1="1524.5" x2="1524.5" y1="1032.6504" y2="1045.6504"/><line style="stroke:#181818;stroke-width:1.0;" x1="1483.5" x2="1524.5" y1="1045.6504" y2="1045.6504"/><polygon fill="#181818" points="1493.5,1041.6504,1483.5,1045.6504,1493.5,1049.6504,1489.5,1045.6504" style="stroke:#181818;stroke-width:1.0;"/><text fill="#000000" font-family="sans-serif" font-size="13" lengthAdjust="spacing" textLength="91" x="1489.5" y="1027.9082">sorted(results)</text><line style="stroke:#181818;stroke-width:1.0;" x1="1482.5" x2="1524.5" y1="1074.9609" y2="1074.9609"/><line style="stroke:#181818;stroke-width:1.0;" x1="1524.5" x2="1524.5" y1="1074.9609" y2="1087.9609"/><line style="stroke:#181818;stroke-width:1.0;" x1="1483.5" x2="1524.5" y1="1087.9609" y2="1087.9609"/><polygon fill="#181818" points="1493.5,1083.9609,1483.5,1087.9609,1493.5,1091.9609,1489.5,1087.9609" style="stroke:#181818;stroke-width:1.0;"/><text fill="#000000" font-family="sans-serif" font-size="13" lengthAdjust="spacing" textLength="206" x="1489.5" y="1070.2188">process_results(filepath, results)</text><polygon fill="#181818" points="666.5,1113.2715,656.5,1117.2715,666.5,1121.2715,662.5,1117.2715" style="stroke:#181818;stroke-width:1.0;"/><line style="stroke:#181818;stroke-width:1.0;stroke-dasharray:2.0,2.0;" x1="660.5" x2="1481.5" y1="1117.2715" y2="1117.2715"/><text fill="#000000" font-family="sans-serif" font-size="13" lengthAdjust="spacing" textLength="48" x="672.5" y="1112.5293">Returns</text><line style="stroke:#000000;stroke-width:1.0;stroke-dasharray:2.0,2.0;" x1="10" x2="1954.5" y1="1126.2715" y2="1126.2715"/><line style="stroke:#181818;stroke-width:1.0;" x1="655.5" x2="697.5" y1="1148.582" y2="1148.582"/><line style="stroke:#181818;stroke-width:1.0;" x1="697.5" x2="697.5" y1="1148.582" y2="1161.582"/><line style="stroke:#181818;stroke-width:1.0;" x1="656.5" x2="697.5" y1="1161.582" y2="1161.582"/><polygon fill="#181818" points="666.5,1157.582,656.5,1161.582,666.5,1165.582,662.5,1161.582" style="stroke:#181818;stroke-width:1.0;"/><text fill="#000000" font-family="sans-serif" font-size="13" lengthAdjust="spacing" textLength="198" x="662.5" y="1143.8398">Prints error (Unknown function)</text><polygon fill="#181818" points="348.5,1193.8926,338.5,1197.8926,348.5,1201.8926,344.5,1197.8926" style="stroke:#181818;stroke-width:1.0;"/><line style="stroke:#181818;stroke-width:1.0;stroke-dasharray:2.0,2.0;" x1="342.5" x2="654.5" y1="1197.8926" y2="1197.8926"/><text fill="#000000" font-family="sans-serif" font-size="13" lengthAdjust="spacing" textLength="94" x="354.5" y="1193.1504">Returns output</text><polygon fill="#181818" points="49.5,1223.2031,39.5,1227.2031,49.5,1231.2031,45.5,1227.2031" style="stroke:#181818;stroke-width:1.0;"/><line style="stroke:#181818;stroke-width:1.0;stroke-dasharray:2.0,2.0;" x1="43.5" x2="336.5" y1="1227.2031" y2="1227.2031"/><text fill="#000000" font-family="sans-serif" font-size="13" lengthAdjust="spacing" textLength="100" x="55.5" y="1222.4609">Displays output</text><!--SRC=[ZLHTQzim57tthxW4DX98IjVjAT32o4SRIDSGktaO1Q7QDuwOB7cIt3OT- - -Jv8_QRZjgC0xHEKTNvzmhmmn72F5tWI96c3EQAfh1KYhOiGGbR9ICKMicKlWCLomzSFiQk4I1YXec1Qpn0JciLa50OsDvjnfLa5DbMCnoAWmCPZBBg4XWpGGEW6gOhLTTn8FRY-JbNbATv4UF2sF5SjE5RhOtiqKOajrglhZngCtkRSHojLwKWENx079zkuvM9BhQBhxFAtGK1EuGCBbmbKvXMmWDsjS2ZymSe2gNsf_kN9F9lX2nCoEmU4Sh2v_2XYgD6gXAYmo5qJ1yeOwXPX51Cnm59QbDtr7E4cgiGWSQK6ww_y3vUT-P0Epp8hdPJM56ERVdQyDQzOmyOxERN5XiYeReM2gybrGb99PI9KouKePxvQjjWV79A9jzYr22nl3qPGn7-pwTsUzPXxHd8YaPUbW9O49OHjEkU2p50of3Z2JqNdSggTMzYbrHYUvGSovDkGEnFdbfNLTMQlKPD4c8OHbgGxFSRUdHDQTPgJdEMDSfKmYDGZitVcOy6lPs5EPuNwIfdHsF3v1h_4zklb_xiItxiJdKwzIMjlpbT8ycFf3Q3dUwuPvnV8MZWlBZCnADgMlB1ZG6RyaOJZlmN3476jm9EyavHnlKdRWpaJIKGtYm9jkJ6dG1mX-EOcWTBxZHex-3dewVRr8jjxQj2HNQJjJB46pH54heZxZN7UPNLaPlUTdXT8ojYebSxT7KEmFdy06FAmRed3D3l6JhhE7Yydhn8oBXwkV2zXHc-Lxo1DKO1bKUcdmw_PgSPFctGK_I1KTRoMdYxYDY3hRxR25jiNPprtHxjTgCXZstgyKFfnEz6q_FyUOMTFsZ0PMoCp6y5R-4V1HDbAC0HT9SVisTMyg2B4nUcF9URQPjpgorzDYi_WC0]--></g></svg>