<?xml version="1.0" encoding="us-ascii" standalone="no"?><svg xmlns="http://www.w3.org/2000/svg" xmlns:xlink="http://www.w3.org/1999/xlink" contentStyleType="text/css" height="660px" preserveAspectRatio="none" style="width:1324px;height:660px;background:#FFFFFF;" version="1.1" viewBox="0 0 1324 660" width="1324px" zoomAndPan="magnify"><defs/><g><text fill="#000000" font-family="sans-serif" font-size="14" font-weight="bold" lengthAdjust="spacing" textLength="512" x="407" y="28.5352">Sequence Diagram For Video Processing &amp; Highlight Generation Level I</text><rect fill="none" height="267.3945" style="stroke:#000000;stroke-width:1.5;" width="1307" x="10" y="236.9082"/><line style="stroke:#181818;stroke-width:0.5;stroke-dasharray:5.0,5.0;" x1="38" x2="38" y1="118.9766" y2="579.9238"/><line style="stroke:#181818;stroke-width:0.5;stroke-dasharray:5.0,5.0;" x1="337" x2="337" y1="118.9766" y2="579.9238"/><line style="stroke:#181818;stroke-width:0.5;stroke-dasharray:5.0,5.0;" x1="655.5" x2="655.5" y1="118.9766" y2="579.9238"/><line style="stroke:#181818;stroke-width:0.5;stroke-dasharray:5.0,5.0;" x1="892" x2="892" y1="118.9766" y2="579.9238"/><line style="stroke:#181818;stroke-width:0.5;stroke-dasharray:5.0,5.0;" x1="1020" x2="1020" y1="118.9766" y2="579.9238"/><line style="stroke:#181818;stroke-width:0.5;stroke-dasharray:5.0,5.0;" x1="1196" x2="1196" y1="118.9766" y2="579.9238"/><text fill="#000000" font-family="sans-serif" font-size="14" lengthAdjust="spacing" textLength="31" x="20" y="116.0234">User</text><ellipse cx="38.5" cy="50.9883" fill="#E2E2F0" rx="8" ry="8" style="stroke:#181818;stroke-width:0.5;"/><path d="M38.5,58.9883 L38.5,85.9883 M25.5,66.9883 L51.5,66.9883 M38.5,85.9883 L25.5,100.9883 M38.5,85.9883 L51.5,100.9883 " fill="none" style="stroke:#181818;stroke-width:0.5;"/><text fill="#000000" font-family="sans-serif" font-size="14" lengthAdjust="spacing" textLength="31" x="20" y="592.459">User</text><ellipse cx="38.5" cy="603.9121" fill="#E2E2F0" rx="8" ry="8" style="stroke:#181818;stroke-width:0.5;"/><path d="M38.5,611.9121 L38.5,638.9121 M25.5,619.9121 L51.5,619.9121 M38.5,638.9121 L25.5,653.9121 M38.5,638.9121 L51.5,653.9121 " fill="none" style="stroke:#181818;stroke-width:0.5;"/><rect fill="#E2E2F0" height="30.4883" rx="2.5" ry="2.5" style="stroke:#181818;stroke-width:0.5;" width="117" x="279" y="87.4883"/><text fill="#000000" font-family="sans-serif" font-size="14" lengthAdjust="spacing" textLength="103" x="286" y="108.0234">Command Line</text><rect fill="#E2E2F0" height="30.4883" rx="2.5" ry="2.5" style="stroke:#181818;stroke-width:0.5;" width="117" x="279" y="578.9238"/><text fill="#000000" font-family="sans-serif" font-size="14" lengthAdjust="spacing" textLength="103" x="286" y="599.459">Command Line</text><rect fill="#E2E2F0" height="30.4883" rx="2.5" ry="2.5" style="stroke:#181818;stroke-width:0.5;" width="146" x="582.5" y="87.4883"/><text fill="#000000" font-family="sans-serif" font-size="14" lengthAdjust="spacing" textLength="132" x="589.5" y="108.0234">video_processor.py</text><rect fill="#E2E2F0" height="30.4883" rx="2.5" ry="2.5" style="stroke:#181818;stroke-width:0.5;" width="146" x="582.5" y="578.9238"/><text fill="#000000" font-family="sans-serif" font-size="14" lengthAdjust="spacing" textLength="132" x="589.5" y="599.459">video_processor.py</text><rect fill="#E2E2F0" height="30.4883" rx="2.5" ry="2.5" style="stroke:#181818;stroke-width:0.5;" width="125" x="830" y="87.4883"/><text fill="#000000" font-family="sans-serif" font-size="14" lengthAdjust="spacing" textLength="111" x="837" y="108.0234">PROCESS_VIDEO</text><rect fill="#E2E2F0" height="30.4883" rx="2.5" ry="2.5" style="stroke:#181818;stroke-width:0.5;" width="125" x="830" y="578.9238"/><text fill="#000000" font-family="sans-serif" font-size="14" lengthAdjust="spacing" textLength="111" x="837" y="599.459">PROCESS_VIDEO</text><rect fill="#E2E2F0" height="30.4883" rx="2.5" ry="2.5" style="stroke:#181818;stroke-width:0.5;" width="110" x="965" y="87.4883"/><text fill="#000000" font-family="sans-serif" font-size="14" lengthAdjust="spacing" textLength="96" x="972" y="108.0234">PROCESS_FILE</text><rect fill="#E2E2F0" height="30.4883" rx="2.5" ry="2.5" style="stroke:#181818;stroke-width:0.5;" width="110" x="965" y="578.9238"/><text fill="#000000" font-family="sans-serif" font-size="14" lengthAdjust="spacing" textLength="96" x="972" y="599.459">PROCESS_FILE</text><rect fill="#E2E2F0" height="30.4883" rx="2.5" ry="2.5" style="stroke:#181818;stroke-width:0.5;" width="222" x="1085" y="87.4883"/><text fill="#000000" font-family="sans-serif" font-size="14" lengthAdjust="spacing" textLength="208" x="1092" y="108.0234">PROCESS_FILE_MULTI_THREAD</text><rect fill="#E2E2F0" height="30.4883" rx="2.5" ry="2.5" style="stroke:#181818;stroke-width:0.5;" width="222" x="1085" y="578.9238"/><text fill="#000000" font-family="sans-serif" font-size="14" lengthAdjust="spacing" textLength="208" x="1092" y="599.459">PROCESS_FILE_MULTI_THREAD</text><polygon fill="#181818" points="325.5,146.2871,335.5,150.2871,325.5,154.2871,329.5,150.2871" style="stroke:#181818;stroke-width:1.0;"/><line style="stroke:#181818;stroke-width:1.0;" x1="38.5" x2="331.5" y1="150.2871" y2="150.2871"/><text fill="#000000" font-family="sans-serif" font-size="13" lengthAdjust="spacing" textLength="275" x="45.5" y="145.5449">Runs script with video_path and --function</text><polygon fill="#181818" points="643.5,175.5977,653.5,179.5977,643.5,183.5977,647.5,179.5977" style="stroke:#181818;stroke-width:1.0;"/><line style="stroke:#181818;stroke-width:1.0;" x1="337.5" x2="649.5" y1="179.5977" y2="179.5977"/><text fill="#000000" font-family="sans-serif" font-size="13" lengthAdjust="spacing" textLength="294" x="344.5" y="174.8555">Parses arguments (video_path, function_name)</text><line style="stroke:#181818;stroke-width:1.0;" x1="655.5" x2="697.5" y1="208.9082" y2="208.9082"/><line style="stroke:#181818;stroke-width:1.0;" x1="697.5" x2="697.5" y1="208.9082" y2="221.9082"/><line style="stroke:#181818;stroke-width:1.0;" x1="656.5" x2="697.5" y1="221.9082" y2="221.9082"/><polygon fill="#181818" points="666.5,217.9082,656.5,221.9082,666.5,225.9082,662.5,221.9082" style="stroke:#181818;stroke-width:1.0;"/><text fill="#000000" font-family="sans-serif" font-size="13" lengthAdjust="spacing" textLength="155" x="662.5" y="204.166">Validates function_name</text><path d="M10,236.9082 L72,236.9082 L72,244.2188 L62,254.2188 L10,254.2188 L10,236.9082 " fill="#EEEEEE" style="stroke:#000000;stroke-width:1.5;"/><rect fill="none" height="267.3945" style="stroke:#000000;stroke-width:1.5;" width="1307" x="10" y="236.9082"/><text fill="#000000" font-family="sans-serif" font-size="13" font-weight="bold" lengthAdjust="spacing" textLength="17" x="25" y="250.4766">alt</text><text fill="#000000" font-family="sans-serif" font-size="11" font-weight="bold" lengthAdjust="spacing" textLength="221" x="87" y="249.543">[function_name == "PROCESS_VIDEO"]</text><polygon fill="#181818" points="880.5,271.5293,890.5,275.5293,880.5,279.5293,884.5,275.5293" style="stroke:#181818;stroke-width:1.0;"/><line style="stroke:#181818;stroke-width:1.0;" x1="655.5" x2="886.5" y1="275.5293" y2="275.5293"/><text fill="#000000" font-family="sans-serif" font-size="13" lengthAdjust="spacing" textLength="213" x="662.5" y="270.7871">Calls PROCESS_VIDEO(video_path)</text><polygon fill="#181818" points="49.5,300.8398,39.5,304.8398,49.5,308.8398,45.5,304.8398" style="stroke:#181818;stroke-width:1.0;"/><line style="stroke:#181818;stroke-width:1.0;" x1="43.5" x2="891.5" y1="304.8398" y2="304.8398"/><text fill="#000000" font-family="sans-serif" font-size="13" lengthAdjust="spacing" textLength="213" x="55.5" y="300.0977">Stream Videoframe for Debugging</text><line style="stroke:#000000;stroke-width:1.0;stroke-dasharray:2.0,2.0;" x1="10" x2="1317" y1="313.8398" y2="313.8398"/><text fill="#000000" font-family="sans-serif" font-size="11" font-weight="bold" lengthAdjust="spacing" textLength="207" x="15" y="324.4746">[function_name == "PROCESS_FILE"]</text><polygon fill="#181818" points="1008,345.1055,1018,349.1055,1008,353.1055,1012,349.1055" style="stroke:#181818;stroke-width:1.0;"/><line style="stroke:#181818;stroke-width:1.0;" x1="655.5" x2="1014" y1="349.1055" y2="349.1055"/><text fill="#000000" font-family="sans-serif" font-size="13" lengthAdjust="spacing" textLength="199" x="662.5" y="344.3633">Calls PROCESS_FILE(video_path)</text><polygon fill="#181818" points="666.5,374.416,656.5,378.416,666.5,382.416,662.5,378.416" style="stroke:#181818;stroke-width:1.0;"/><line style="stroke:#181818;stroke-width:1.0;stroke-dasharray:2.0,2.0;" x1="660.5" x2="1019" y1="378.416" y2="378.416"/><text fill="#000000" font-family="sans-serif" font-size="13" lengthAdjust="spacing" textLength="48" x="672.5" y="373.6738">Returns</text><line style="stroke:#000000;stroke-width:1.0;stroke-dasharray:2.0,2.0;" x1="10" x2="1317" y1="387.416" y2="387.416"/><text fill="#000000" font-family="sans-serif" font-size="11" font-weight="bold" lengthAdjust="spacing" textLength="304" x="15" y="398.0508">[function_name == "PROCESS_FILE_MULTI_THREAD"]</text><polygon fill="#181818" points="1184,418.6816,1194,422.6816,1184,426.6816,1188,422.6816" style="stroke:#181818;stroke-width:1.0;"/><line style="stroke:#181818;stroke-width:1.0;" x1="655.5" x2="1190" y1="422.6816" y2="422.6816"/><text fill="#000000" font-family="sans-serif" font-size="13" lengthAdjust="spacing" textLength="304" x="662.5" y="417.9395">Calls PROCESS_FILE_MULTI_THREAD(video_path)</text><polygon fill="#181818" points="666.5,447.9922,656.5,451.9922,666.5,455.9922,662.5,451.9922" style="stroke:#181818;stroke-width:1.0;"/><line style="stroke:#181818;stroke-width:1.0;stroke-dasharray:2.0,2.0;" x1="660.5" x2="1195" y1="451.9922" y2="451.9922"/><text fill="#000000" font-family="sans-serif" font-size="13" lengthAdjust="spacing" textLength="48" x="672.5" y="447.25">Returns</text><line style="stroke:#000000;stroke-width:1.0;stroke-dasharray:2.0,2.0;" x1="10" x2="1317" y1="460.9922" y2="460.9922"/><line style="stroke:#181818;stroke-width:1.0;" x1="655.5" x2="697.5" y1="483.3027" y2="483.3027"/><line style="stroke:#181818;stroke-width:1.0;" x1="697.5" x2="697.5" y1="483.3027" y2="496.3027"/><line style="stroke:#181818;stroke-width:1.0;" x1="656.5" x2="697.5" y1="496.3027" y2="496.3027"/><polygon fill="#181818" points="666.5,492.3027,656.5,496.3027,666.5,500.3027,662.5,496.3027" style="stroke:#181818;stroke-width:1.0;"/><text fill="#000000" font-family="sans-serif" font-size="13" lengthAdjust="spacing" textLength="198" x="662.5" y="478.5605">Prints error (Unknown function)</text><polygon fill="#181818" points="348.5,528.6133,338.5,532.6133,348.5,536.6133,344.5,532.6133" style="stroke:#181818;stroke-width:1.0;"/><line style="stroke:#181818;stroke-width:1.0;stroke-dasharray:2.0,2.0;" x1="342.5" x2="654.5" y1="532.6133" y2="532.6133"/><text fill="#000000" font-family="sans-serif" font-size="13" lengthAdjust="spacing" textLength="94" x="354.5" y="527.8711">Returns output</text><polygon fill="#181818" points="49.5,557.9238,39.5,561.9238,49.5,565.9238,45.5,561.9238" style="stroke:#181818;stroke-width:1.0;"/><line style="stroke:#181818;stroke-width:1.0;stroke-dasharray:2.0,2.0;" x1="43.5" x2="336.5" y1="561.9238" y2="561.9238"/><text fill="#000000" font-family="sans-serif" font-size="13" lengthAdjust="spacing" textLength="100" x="55.5" y="557.1816">Displays output</text><!--SRC=[ZPBTQi9048Nlzoa6Buf2xGC85eenDP1YC36tOHh7k7IpINStbhvzTnCRZRMb0I74xymvysEu4GGnlJSaSmAFOw6m1BzIaF8TLH2fAYUjkIpW3bQyE0ZxC_1CaXGQNaa8wKW20iOmDrQsrQHOZShmdDSe3OmMLLcYt4789Oq0DIp2O4WSdLLMTrQLUgW_MoxE5Q_D48qswyKoZhCqy9RhbehIsuGVXCiEy7y7ifTjc0HPijeidxmJdJ3cce3feqiwWqqZDUWs2tnmSu1JNBIlhg_fTD_8tCs2MTx9kk0pY51fqe2gQ4gIHiFuBBs7RrKciQG9wqINyXG5tw6n5GOeGs66Ns0-lvuC0_kSIqRf31OeXEtl4hl8CsaLKUfer_uCOgF8ta9x1tlbRFPslnwzDaLXxu6HqFH7ZdR-rp7ywnYE-fd2jqCzps53fb5I_yTmkCyVxiaj-u7cHfRarp1NzVkrA-wMJKhPUOstyarM7x8FFc4aT_ss-oFhoaBLcBentI7rc_2uhWL-zlz-0G00]--></g></svg>