<?xml version="1.0" encoding="us-ascii" standalone="no"?><svg xmlns="http://www.w3.org/2000/svg" xmlns:xlink="http://www.w3.org/1999/xlink" contentStyleType="text/css" height="1210px" preserveAspectRatio="none" style="width:1930px;height:1210px;background:#FFFFFF;" version="1.1" viewBox="0 0 1930 1210" width="1930px" zoomAndPan="magnify"><defs/><g><text fill="#000000" font-family="sans-serif" font-size="14" font-weight="bold" lengthAdjust="spacing" textLength="517" x="707.75" y="28.5352">Sequence Diagram For Video Processing &amp; Highlight Generation Level II</text><rect fill="none" height="817.4316" style="stroke:#000000;stroke-width:1.5;" width="1913.5" x="10" y="236.9082"/><line style="stroke:#181818;stroke-width:0.5;stroke-dasharray:5.0,5.0;" x1="38" x2="38" y1="118.9766" y2="1129.9609"/><line style="stroke:#181818;stroke-width:0.5;stroke-dasharray:5.0,5.0;" x1="337" x2="337" y1="118.9766" y2="1129.9609"/><line style="stroke:#181818;stroke-width:0.5;stroke-dasharray:5.0,5.0;" x1="655.5" x2="655.5" y1="118.9766" y2="1129.9609"/><line style="stroke:#181818;stroke-width:0.5;stroke-dasharray:5.0,5.0;" x1="892" x2="892" y1="118.9766" y2="1129.9609"/><line style="stroke:#181818;stroke-width:0.5;stroke-dasharray:5.0,5.0;" x1="1214.5" x2="1214.5" y1="118.9766" y2="1129.9609"/><line style="stroke:#181818;stroke-width:0.5;stroke-dasharray:5.0,5.0;" x1="1451.5" x2="1451.5" y1="118.9766" y2="1129.9609"/><text fill="#000000" font-family="sans-serif" font-size="14" lengthAdjust="spacing" textLength="31" x="20" y="116.0234">User</text><ellipse cx="38.5" cy="50.9883" fill="#E2E2F0" rx="8" ry="8" style="stroke:#181818;stroke-width:0.5;"/><path d="M38.5,58.9883 L38.5,85.9883 M25.5,66.9883 L51.5,66.9883 M38.5,85.9883 L25.5,100.9883 M38.5,85.9883 L51.5,100.9883 " fill="none" style="stroke:#181818;stroke-width:0.5;"/><text fill="#000000" font-family="sans-serif" font-size="14" lengthAdjust="spacing" textLength="31" x="20" y="1142.4961">User</text><ellipse cx="38.5" cy="1153.9492" fill="#E2E2F0" rx="8" ry="8" style="stroke:#181818;stroke-width:0.5;"/><path d="M38.5,1161.9492 L38.5,1188.9492 M25.5,1169.9492 L51.5,1169.9492 M38.5,1188.9492 L25.5,1203.9492 M38.5,1188.9492 L51.5,1203.9492 " fill="none" style="stroke:#181818;stroke-width:0.5;"/><rect fill="#E2E2F0" height="30.4883" rx="2.5" ry="2.5" style="stroke:#181818;stroke-width:0.5;" width="117" x="279" y="87.4883"/><text fill="#000000" font-family="sans-serif" font-size="14" lengthAdjust="spacing" textLength="103" x="286" y="108.0234">Command Line</text><rect fill="#E2E2F0" height="30.4883" rx="2.5" ry="2.5" style="stroke:#181818;stroke-width:0.5;" width="117" x="279" y="1128.9609"/><text fill="#000000" font-family="sans-serif" font-size="14" lengthAdjust="spacing" textLength="103" x="286" y="1149.4961">Command Line</text><rect fill="#E2E2F0" height="30.4883" rx="2.5" ry="2.5" style="stroke:#181818;stroke-width:0.5;" width="146" x="582.5" y="87.4883"/><text fill="#000000" font-family="sans-serif" font-size="14" lengthAdjust="spacing" textLength="132" x="589.5" y="108.0234">video_processor.py</text><rect fill="#E2E2F0" height="30.4883" rx="2.5" ry="2.5" style="stroke:#181818;stroke-width:0.5;" width="146" x="582.5" y="1128.9609"/><text fill="#000000" font-family="sans-serif" font-size="14" lengthAdjust="spacing" textLength="132" x="589.5" y="1149.4961">video_processor.py</text><rect fill="#E2E2F0" height="30.4883" rx="2.5" ry="2.5" style="stroke:#181818;stroke-width:0.5;" width="125" x="830" y="87.4883"/><text fill="#000000" font-family="sans-serif" font-size="14" lengthAdjust="spacing" textLength="111" x="837" y="108.0234">PROCESS_VIDEO</text><rect fill="#E2E2F0" height="30.4883" rx="2.5" ry="2.5" style="stroke:#181818;stroke-width:0.5;" width="125" x="830" y="1128.9609"/><text fill="#000000" font-family="sans-serif" font-size="14" lengthAdjust="spacing" textLength="111" x="837" y="1149.4961">PROCESS_VIDEO</text><rect fill="#E2E2F0" height="30.4883" rx="2.5" ry="2.5" style="stroke:#181818;stroke-width:0.5;" width="110" x="1159.5" y="87.4883"/><text fill="#000000" font-family="sans-serif" font-size="14" lengthAdjust="spacing" textLength="96" x="1166.5" y="108.0234">PROCESS_FILE</text><rect fill="#E2E2F0" height="30.4883" rx="2.5" ry="2.5" style="stroke:#181818;stroke-width:0.5;" width="110" x="1159.5" y="1128.9609"/><text fill="#000000" font-family="sans-serif" font-size="14" lengthAdjust="spacing" textLength="96" x="1166.5" y="1149.4961">PROCESS_FILE</text><rect fill="#E2E2F0" height="30.4883" rx="2.5" ry="2.5" style="stroke:#181818;stroke-width:0.5;" width="222" x="1340.5" y="87.4883"/><text fill="#000000" font-family="sans-serif" font-size="14" lengthAdjust="spacing" textLength="208" x="1347.5" y="108.0234">PROCESS_FILE_MULTI_THREAD</text><rect fill="#E2E2F0" height="30.4883" rx="2.5" ry="2.5" style="stroke:#181818;stroke-width:0.5;" width="222" x="1340.5" y="1128.9609"/><text fill="#000000" font-family="sans-serif" font-size="14" lengthAdjust="spacing" textLength="208" x="1347.5" y="1149.4961">PROCESS_FILE_MULTI_THREAD</text><polygon fill="#181818" points="325.5,146.2871,335.5,150.2871,325.5,154.2871,329.5,150.2871" style="stroke:#181818;stroke-width:1.0;"/><line style="stroke:#181818;stroke-width:1.0;" x1="38.5" x2="331.5" y1="150.2871" y2="150.2871"/><text fill="#000000" font-family="sans-serif" font-size="13" lengthAdjust="spacing" textLength="275" x="45.5" y="145.5449">Runs script with video_path and --function</text><polygon fill="#181818" points="643.5,175.5977,653.5,179.5977,643.5,183.5977,647.5,179.5977" style="stroke:#181818;stroke-width:1.0;"/><line style="stroke:#181818;stroke-width:1.0;" x1="337.5" x2="649.5" y1="179.5977" y2="179.5977"/><text fill="#000000" font-family="sans-serif" font-size="13" lengthAdjust="spacing" textLength="294" x="344.5" y="174.8555">Parses arguments (video_path, function_name)</text><line style="stroke:#181818;stroke-width:1.0;" x1="655.5" x2="697.5" y1="208.9082" y2="208.9082"/><line style="stroke:#181818;stroke-width:1.0;" x1="697.5" x2="697.5" y1="208.9082" y2="221.9082"/><line style="stroke:#181818;stroke-width:1.0;" x1="656.5" x2="697.5" y1="221.9082" y2="221.9082"/><polygon fill="#181818" points="666.5,217.9082,656.5,221.9082,666.5,225.9082,662.5,221.9082" style="stroke:#181818;stroke-width:1.0;"/><text fill="#000000" font-family="sans-serif" font-size="13" lengthAdjust="spacing" textLength="155" x="662.5" y="204.166">Validates function_name</text><path d="M10,236.9082 L72,236.9082 L72,244.2188 L62,254.2188 L10,254.2188 L10,236.9082 " fill="#EEEEEE" style="stroke:#000000;stroke-width:1.5;"/><rect fill="none" height="817.4316" style="stroke:#000000;stroke-width:1.5;" width="1913.5" x="10" y="236.9082"/><text fill="#000000" font-family="sans-serif" font-size="13" font-weight="bold" lengthAdjust="spacing" textLength="17" x="25" y="250.4766">alt</text><text fill="#000000" font-family="sans-serif" font-size="11" font-weight="bold" lengthAdjust="spacing" textLength="221" x="87" y="249.543">[function_name == "PROCESS_VIDEO"]</text><polygon fill="#181818" points="880.5,271.5293,890.5,275.5293,880.5,279.5293,884.5,275.5293" style="stroke:#181818;stroke-width:1.0;"/><line style="stroke:#181818;stroke-width:1.0;" x1="655.5" x2="886.5" y1="275.5293" y2="275.5293"/><text fill="#000000" font-family="sans-serif" font-size="13" lengthAdjust="spacing" textLength="213" x="662.5" y="270.7871">Calls PROCESS_VIDEO(video_path)</text><line style="stroke:#181818;stroke-width:1.0;" x1="892.5" x2="934.5" y1="304.8398" y2="304.8398"/><line style="stroke:#181818;stroke-width:1.0;" x1="934.5" x2="934.5" y1="304.8398" y2="317.8398"/><line style="stroke:#181818;stroke-width:1.0;" x1="893.5" x2="934.5" y1="317.8398" y2="317.8398"/><polygon fill="#181818" points="903.5,313.8398,893.5,317.8398,903.5,321.8398,899.5,317.8398" style="stroke:#181818;stroke-width:1.0;"/><text fill="#000000" font-family="sans-serif" font-size="13" lengthAdjust="spacing" textLength="222" x="899.5" y="300.0977">get_scoreboard_coordinates(frame)</text><line style="stroke:#181818;stroke-width:1.0;" x1="892.5" x2="934.5" y1="347.1504" y2="347.1504"/><line style="stroke:#181818;stroke-width:1.0;" x1="934.5" x2="934.5" y1="347.1504" y2="360.1504"/><line style="stroke:#181818;stroke-width:1.0;" x1="893.5" x2="934.5" y1="360.1504" y2="360.1504"/><polygon fill="#181818" points="903.5,356.1504,893.5,360.1504,903.5,364.1504,899.5,360.1504" style="stroke:#181818;stroke-width:1.0;"/><text fill="#000000" font-family="sans-serif" font-size="13" lengthAdjust="spacing" textLength="259" x="899.5" y="342.4082">extract_scoreboard(frame, x1, y1, x2, y2)</text><line style="stroke:#181818;stroke-width:1.0;" x1="892.5" x2="934.5" y1="389.4609" y2="389.4609"/><line style="stroke:#181818;stroke-width:1.0;" x1="934.5" x2="934.5" y1="389.4609" y2="402.4609"/><line style="stroke:#181818;stroke-width:1.0;" x1="893.5" x2="934.5" y1="402.4609" y2="402.4609"/><polygon fill="#181818" points="903.5,398.4609,893.5,402.4609,903.5,406.4609,899.5,402.4609" style="stroke:#181818;stroke-width:1.0;"/><text fill="#000000" font-family="sans-serif" font-size="13" lengthAdjust="spacing" textLength="185" x="899.5" y="384.7188">find_scores(extracted_image)</text><line style="stroke:#181818;stroke-width:1.0;" x1="892.5" x2="934.5" y1="431.7715" y2="431.7715"/><line style="stroke:#181818;stroke-width:1.0;" x1="934.5" x2="934.5" y1="431.7715" y2="444.7715"/><line style="stroke:#181818;stroke-width:1.0;" x1="893.5" x2="934.5" y1="444.7715" y2="444.7715"/><polygon fill="#181818" points="903.5,440.7715,893.5,444.7715,903.5,448.7715,899.5,444.7715" style="stroke:#181818;stroke-width:1.0;"/><text fill="#000000" font-family="sans-serif" font-size="13" lengthAdjust="spacing" textLength="308" x="899.5" y="427.0293">convert_to_abs_coordinates(x1, y1, score_cords)</text><line style="stroke:#181818;stroke-width:1.0;" x1="892.5" x2="934.5" y1="474.082" y2="474.082"/><line style="stroke:#181818;stroke-width:1.0;" x1="934.5" x2="934.5" y1="474.082" y2="487.082"/><line style="stroke:#181818;stroke-width:1.0;" x1="893.5" x2="934.5" y1="487.082" y2="487.082"/><polygon fill="#181818" points="903.5,483.082,893.5,487.082,903.5,491.082,899.5,487.082" style="stroke:#181818;stroke-width:1.0;"/><text fill="#000000" font-family="sans-serif" font-size="13" lengthAdjust="spacing" textLength="257" x="899.5" y="469.3398">plotscores_on_images(frame, abs_cords)</text><line style="stroke:#181818;stroke-width:1.0;" x1="892.5" x2="934.5" y1="516.3926" y2="516.3926"/><line style="stroke:#181818;stroke-width:1.0;" x1="934.5" x2="934.5" y1="516.3926" y2="529.3926"/><line style="stroke:#181818;stroke-width:1.0;" x1="893.5" x2="934.5" y1="529.3926" y2="529.3926"/><polygon fill="#181818" points="903.5,525.3926,893.5,529.3926,903.5,533.3926,899.5,529.3926" style="stroke:#181818;stroke-width:1.0;"/><text fill="#000000" font-family="sans-serif" font-size="13" lengthAdjust="spacing" textLength="279" x="899.5" y="511.6504">add_timestamp_to_frame(frame, timestamp)</text><polygon fill="#181818" points="49.5,554.7031,39.5,558.7031,49.5,562.7031,45.5,558.7031" style="stroke:#181818;stroke-width:1.0;"/><line style="stroke:#181818;stroke-width:1.0;" x1="43.5" x2="891.5" y1="558.7031" y2="558.7031"/><text fill="#000000" font-family="sans-serif" font-size="13" lengthAdjust="spacing" textLength="213" x="55.5" y="553.9609">Stream Videoframe for Debugging</text><line style="stroke:#000000;stroke-width:1.0;stroke-dasharray:2.0,2.0;" x1="10" x2="1923.5" y1="567.7031" y2="567.7031"/><text fill="#000000" font-family="sans-serif" font-size="11" font-weight="bold" lengthAdjust="spacing" textLength="207" x="15" y="578.3379">[function_name == "PROCESS_FILE"]</text><polygon fill="#181818" points="1202.5,598.9688,1212.5,602.9688,1202.5,606.9688,1206.5,602.9688" style="stroke:#181818;stroke-width:1.0;"/><line style="stroke:#181818;stroke-width:1.0;" x1="655.5" x2="1208.5" y1="602.9688" y2="602.9688"/><text fill="#000000" font-family="sans-serif" font-size="13" lengthAdjust="spacing" textLength="199" x="662.5" y="598.2266">Calls PROCESS_FILE(video_path)</text><line style="stroke:#181818;stroke-width:1.0;" x1="1214.5" x2="1256.5" y1="632.2793" y2="632.2793"/><line style="stroke:#181818;stroke-width:1.0;" x1="1256.5" x2="1256.5" y1="632.2793" y2="645.2793"/><line style="stroke:#181818;stroke-width:1.0;" x1="1215.5" x2="1256.5" y1="645.2793" y2="645.2793"/><polygon fill="#181818" points="1225.5,641.2793,1215.5,645.2793,1225.5,649.2793,1221.5,645.2793" style="stroke:#181818;stroke-width:1.0;"/><text fill="#000000" font-family="sans-serif" font-size="13" lengthAdjust="spacing" textLength="179" x="1221.5" y="627.5371">fetch_score_coords(filepath)</text><line style="stroke:#181818;stroke-width:1.0;" x1="1214.5" x2="1256.5" y1="674.5898" y2="674.5898"/><line style="stroke:#181818;stroke-width:1.0;" x1="1256.5" x2="1256.5" y1="674.5898" y2="687.5898"/><line style="stroke:#181818;stroke-width:1.0;" x1="1215.5" x2="1256.5" y1="687.5898" y2="687.5898"/><polygon fill="#181818" points="1225.5,683.5898,1215.5,687.5898,1225.5,691.5898,1221.5,687.5898" style="stroke:#181818;stroke-width:1.0;"/><text fill="#000000" font-family="sans-serif" font-size="13" lengthAdjust="spacing" textLength="223" x="1221.5" y="669.8477">analyze_segment(filepath, cords, 0)</text><line style="stroke:#181818;stroke-width:1.0;" x1="1214.5" x2="1256.5" y1="716.9004" y2="716.9004"/><line style="stroke:#181818;stroke-width:1.0;" x1="1256.5" x2="1256.5" y1="716.9004" y2="729.9004"/><line style="stroke:#181818;stroke-width:1.0;" x1="1215.5" x2="1256.5" y1="729.9004" y2="729.9004"/><polygon fill="#181818" points="1225.5,725.9004,1215.5,729.9004,1225.5,733.9004,1221.5,729.9004" style="stroke:#181818;stroke-width:1.0;"/><text fill="#000000" font-family="sans-serif" font-size="13" lengthAdjust="spacing" textLength="206" x="1221.5" y="712.1582">process_results(filepath, results)</text><polygon fill="#181818" points="666.5,755.2109,656.5,759.2109,666.5,763.2109,662.5,759.2109" style="stroke:#181818;stroke-width:1.0;"/><line style="stroke:#181818;stroke-width:1.0;stroke-dasharray:2.0,2.0;" x1="660.5" x2="1213.5" y1="759.2109" y2="759.2109"/><text fill="#000000" font-family="sans-serif" font-size="13" lengthAdjust="spacing" textLength="48" x="672.5" y="754.4688">Returns</text><line style="stroke:#000000;stroke-width:1.0;stroke-dasharray:2.0,2.0;" x1="10" x2="1923.5" y1="768.2109" y2="768.2109"/><text fill="#000000" font-family="sans-serif" font-size="11" font-weight="bold" lengthAdjust="spacing" textLength="304" x="15" y="778.8457">[function_name == "PROCESS_FILE_MULTI_THREAD"]</text><polygon fill="#181818" points="1439.5,799.4766,1449.5,803.4766,1439.5,807.4766,1443.5,803.4766" style="stroke:#181818;stroke-width:1.0;"/><line style="stroke:#181818;stroke-width:1.0;" x1="655.5" x2="1445.5" y1="803.4766" y2="803.4766"/><text fill="#000000" font-family="sans-serif" font-size="13" lengthAdjust="spacing" textLength="304" x="662.5" y="798.7344">Calls PROCESS_FILE_MULTI_THREAD(video_path)</text><line style="stroke:#181818;stroke-width:1.0;" x1="1451.5" x2="1493.5" y1="832.7871" y2="832.7871"/><line style="stroke:#181818;stroke-width:1.0;" x1="1493.5" x2="1493.5" y1="832.7871" y2="845.7871"/><line style="stroke:#181818;stroke-width:1.0;" x1="1452.5" x2="1493.5" y1="845.7871" y2="845.7871"/><polygon fill="#181818" points="1462.5,841.7871,1452.5,845.7871,1462.5,849.7871,1458.5,845.7871" style="stroke:#181818;stroke-width:1.0;"/><text fill="#000000" font-family="sans-serif" font-size="13" lengthAdjust="spacing" textLength="232" x="1458.5" y="828.0449">cords = fetch_score_coords(filepath)</text><line style="stroke:#181818;stroke-width:1.0;" x1="1451.5" x2="1493.5" y1="875.0977" y2="875.0977"/><line style="stroke:#181818;stroke-width:1.0;" x1="1493.5" x2="1493.5" y1="875.0977" y2="888.0977"/><line style="stroke:#181818;stroke-width:1.0;" x1="1452.5" x2="1493.5" y1="888.0977" y2="888.0977"/><polygon fill="#181818" points="1462.5,884.0977,1452.5,888.0977,1462.5,892.0977,1458.5,888.0977" style="stroke:#181818;stroke-width:1.0;"/><text fill="#000000" font-family="sans-serif" font-size="13" lengthAdjust="spacing" textLength="453" x="1458.5" y="870.3555">split_video(filepath, SEGMENT_SIZE, tempfolder, "segments_%03d.mp4")</text><line style="stroke:#181818;stroke-width:1.0;" x1="1451.5" x2="1493.5" y1="917.4082" y2="917.4082"/><line style="stroke:#181818;stroke-width:1.0;" x1="1493.5" x2="1493.5" y1="917.4082" y2="930.4082"/><line style="stroke:#181818;stroke-width:1.0;" x1="1452.5" x2="1493.5" y1="930.4082" y2="930.4082"/><polygon fill="#181818" points="1462.5,926.4082,1452.5,930.4082,1462.5,934.4082,1458.5,930.4082" style="stroke:#181818;stroke-width:1.0;"/><text fill="#000000" font-family="sans-serif" font-size="13" lengthAdjust="spacing" textLength="330" x="1458.5" y="912.666">analayze_segments_with_threads(tempfolder, cords)</text><line style="stroke:#181818;stroke-width:1.0;" x1="1451.5" x2="1493.5" y1="959.7188" y2="959.7188"/><line style="stroke:#181818;stroke-width:1.0;" x1="1493.5" x2="1493.5" y1="959.7188" y2="972.7188"/><line style="stroke:#181818;stroke-width:1.0;" x1="1452.5" x2="1493.5" y1="972.7188" y2="972.7188"/><polygon fill="#181818" points="1462.5,968.7188,1452.5,972.7188,1462.5,976.7188,1458.5,972.7188" style="stroke:#181818;stroke-width:1.0;"/><text fill="#000000" font-family="sans-serif" font-size="13" lengthAdjust="spacing" textLength="206" x="1458.5" y="954.9766">process_results(filepath, results)</text><polygon fill="#181818" points="666.5,998.0293,656.5,1002.0293,666.5,1006.0293,662.5,1002.0293" style="stroke:#181818;stroke-width:1.0;"/><line style="stroke:#181818;stroke-width:1.0;stroke-dasharray:2.0,2.0;" x1="660.5" x2="1450.5" y1="1002.0293" y2="1002.0293"/><text fill="#000000" font-family="sans-serif" font-size="13" lengthAdjust="spacing" textLength="48" x="672.5" y="997.2871">Returns</text><line style="stroke:#000000;stroke-width:1.0;stroke-dasharray:2.0,2.0;" x1="10" x2="1923.5" y1="1011.0293" y2="1011.0293"/><line style="stroke:#181818;stroke-width:1.0;" x1="655.5" x2="697.5" y1="1033.3398" y2="1033.3398"/><line style="stroke:#181818;stroke-width:1.0;" x1="697.5" x2="697.5" y1="1033.3398" y2="1046.3398"/><line style="stroke:#181818;stroke-width:1.0;" x1="656.5" x2="697.5" y1="1046.3398" y2="1046.3398"/><polygon fill="#181818" points="666.5,1042.3398,656.5,1046.3398,666.5,1050.3398,662.5,1046.3398" style="stroke:#181818;stroke-width:1.0;"/><text fill="#000000" font-family="sans-serif" font-size="13" lengthAdjust="spacing" textLength="198" x="662.5" y="1028.5977">Prints error (Unknown function)</text><polygon fill="#181818" points="348.5,1078.6504,338.5,1082.6504,348.5,1086.6504,344.5,1082.6504" style="stroke:#181818;stroke-width:1.0;"/><line style="stroke:#181818;stroke-width:1.0;stroke-dasharray:2.0,2.0;" x1="342.5" x2="654.5" y1="1082.6504" y2="1082.6504"/><text fill="#000000" font-family="sans-serif" font-size="13" lengthAdjust="spacing" textLength="94" x="354.5" y="1077.9082">Returns output</text><polygon fill="#181818" points="49.5,1107.9609,39.5,1111.9609,49.5,1115.9609,45.5,1111.9609" style="stroke:#181818;stroke-width:1.0;"/><line style="stroke:#181818;stroke-width:1.0;stroke-dasharray:2.0,2.0;" x1="43.5" x2="336.5" y1="1111.9609" y2="1111.9609"/><text fill="#000000" font-family="sans-serif" font-size="13" lengthAdjust="spacing" textLength="100" x="55.5" y="1107.2188">Displays output</text><!--SRC=[ZLHTQzim57tthxW4Db98IjVjAT32I9pMa6uXTlEm5w7QruwOB7cIt3RxzPFaZzffEnemCTOvH_UU-s6OuGWn_gbHf0WhHWj5IrXB1NkMeOIjaYbgpKG1d-6M5GTk7mCtA51HmwI03JuYXoWA0feQoxlNg8AAAiDILb5XOBAKPKb51XicS09Kmt8JZH6FxYvIDNT9TLuTFIvE5QlC6BhT_Lo6SKpsqIhywL7R_Tk8TRG96y3wVG2vkzya4KbkT-7tLOjEWi0b0VDh5-a2ThNGe7qiyCJC0TfmgNrrUStdUIrIPqPWyOxM1Bw0BLKQDL1Lr2KAes7wGfr1noA2bdWMDAGXVKyvowYn2YDeGBaPVu6hgrDd0h2_5ydjVW5BohdDRmWRn7Fc6Tlz_DfY2pH4frBXWwGg8wcKAcF2XJBDbOzs0CPdespj1uG6D8FdBpCuskVvqlvVZaWv4rd3qDDM03F2IbgCnLCf7b4POYIX3teKIQVkLUo9olI8Md5fcXk8zSbBwowoHkkKGREC65QYDhIit9KUtN7wauxZZ7MTie3OABHpusV6eo6tex32XxeexEnuV81Sut_gvllrj6phqx8vrEkghMtuwqME9ZsGpWwNtJHd75_XgA3y-1U9niArPG-QWRTa1XSZU3kNn1fPSwC7yFPBXxQJyDAyEpIr4leZMO-7y9K5oLiUZ3Xl69Auq9E5JmYku0FMj0pG5MU6UCL1gd5uSnV-I4WS_GfjAs1PvP9dg6OmQMtKvDF5r-oyhBvDJYITttHWk2PkZH1pi4rZ0ncA3Nkoet_O_-JT0fnuskydnTnMGgLijqxlnMyXdqHVhBC0HTQlfNuRDh8WQrFLfjbu_Hoic7MF7llJVm00]--></g></svg>