<?xml version="1.0" encoding="us-ascii" standalone="no"?><svg xmlns="http://www.w3.org/2000/svg" xmlns:xlink="http://www.w3.org/1999/xlink" contentStyleType="text/css" height="860px" preserveAspectRatio="none" style="width:1416px;height:860px;background:#FFFFFF;" version="1.1" viewBox="0 0 1416 860" width="1416px" zoomAndPan="magnify"><defs/><g><text fill="#000000" font-family="sans-serif" font-size="14" font-weight="bold" lengthAdjust="spacing" textLength="512" x="453" y="28.5352">Sequence Diagram For Video Processing &amp; Highlight Generation Level I</text><rect fill="none" height="467.2578" style="stroke:#000000;stroke-width:1.5;" width="1399" x="10" y="236.9082"/><line style="stroke:#181818;stroke-width:0.5;stroke-dasharray:5.0,5.0;" x1="38" x2="38" y1="118.9766" y2="779.7871"/><line style="stroke:#181818;stroke-width:0.5;stroke-dasharray:5.0,5.0;" x1="337" x2="337" y1="118.9766" y2="779.7871"/><line style="stroke:#181818;stroke-width:0.5;stroke-dasharray:5.0,5.0;" x1="655.5" x2="655.5" y1="118.9766" y2="779.7871"/><line style="stroke:#181818;stroke-width:0.5;stroke-dasharray:5.0,5.0;" x1="892" x2="892" y1="118.9766" y2="779.7871"/><line style="stroke:#181818;stroke-width:0.5;stroke-dasharray:5.0,5.0;" x1="1020" x2="1020" y1="118.9766" y2="779.7871"/><line style="stroke:#181818;stroke-width:0.5;stroke-dasharray:5.0,5.0;" x1="1288" x2="1288" y1="118.9766" y2="779.7871"/><text fill="#000000" font-family="sans-serif" font-size="14" lengthAdjust="spacing" textLength="31" x="20" y="116.0234">User</text><ellipse cx="38.5" cy="50.9883" fill="#E2E2F0" rx="8" ry="8" style="stroke:#181818;stroke-width:0.5;"/><path d="M38.5,58.9883 L38.5,85.9883 M25.5,66.9883 L51.5,66.9883 M38.5,85.9883 L25.5,100.9883 M38.5,85.9883 L51.5,100.9883 " fill="none" style="stroke:#181818;stroke-width:0.5;"/><text fill="#000000" font-family="sans-serif" font-size="14" lengthAdjust="spacing" textLength="31" x="20" y="792.3223">User</text><ellipse cx="38.5" cy="803.7754" fill="#E2E2F0" rx="8" ry="8" style="stroke:#181818;stroke-width:0.5;"/><path d="M38.5,811.7754 L38.5,838.7754 M25.5,819.7754 L51.5,819.7754 M38.5,838.7754 L25.5,853.7754 M38.5,838.7754 L51.5,853.7754 " fill="none" style="stroke:#181818;stroke-width:0.5;"/><rect fill="#E2E2F0" height="30.4883" rx="2.5" ry="2.5" style="stroke:#181818;stroke-width:0.5;" width="117" x="279" y="87.4883"/><text fill="#000000" font-family="sans-serif" font-size="14" lengthAdjust="spacing" textLength="103" x="286" y="108.0234">Command Line</text><rect fill="#E2E2F0" height="30.4883" rx="2.5" ry="2.5" style="stroke:#181818;stroke-width:0.5;" width="117" x="279" y="778.7871"/><text fill="#000000" font-family="sans-serif" font-size="14" lengthAdjust="spacing" textLength="103" x="286" y="799.3223">Command Line</text><rect fill="#E2E2F0" height="30.4883" rx="2.5" ry="2.5" style="stroke:#181818;stroke-width:0.5;" width="146" x="582.5" y="87.4883"/><text fill="#000000" font-family="sans-serif" font-size="14" lengthAdjust="spacing" textLength="132" x="589.5" y="108.0234">video_processor.py</text><rect fill="#E2E2F0" height="30.4883" rx="2.5" ry="2.5" style="stroke:#181818;stroke-width:0.5;" width="146" x="582.5" y="778.7871"/><text fill="#000000" font-family="sans-serif" font-size="14" lengthAdjust="spacing" textLength="132" x="589.5" y="799.3223">video_processor.py</text><rect fill="#E2E2F0" height="30.4883" rx="2.5" ry="2.5" style="stroke:#181818;stroke-width:0.5;" width="125" x="830" y="87.4883"/><text fill="#000000" font-family="sans-serif" font-size="14" lengthAdjust="spacing" textLength="111" x="837" y="108.0234">PROCESS_VIDEO</text><rect fill="#E2E2F0" height="30.4883" rx="2.5" ry="2.5" style="stroke:#181818;stroke-width:0.5;" width="125" x="830" y="778.7871"/><text fill="#000000" font-family="sans-serif" font-size="14" lengthAdjust="spacing" textLength="111" x="837" y="799.3223">PROCESS_VIDEO</text><rect fill="#E2E2F0" height="30.4883" rx="2.5" ry="2.5" style="stroke:#181818;stroke-width:0.5;" width="110" x="965" y="87.4883"/><text fill="#000000" font-family="sans-serif" font-size="14" lengthAdjust="spacing" textLength="96" x="972" y="108.0234">PROCESS_FILE</text><rect fill="#E2E2F0" height="30.4883" rx="2.5" ry="2.5" style="stroke:#181818;stroke-width:0.5;" width="110" x="965" y="778.7871"/><text fill="#000000" font-family="sans-serif" font-size="14" lengthAdjust="spacing" textLength="96" x="972" y="799.3223">PROCESS_FILE</text><rect fill="#E2E2F0" height="30.4883" rx="2.5" ry="2.5" style="stroke:#181818;stroke-width:0.5;" width="222" x="1177" y="87.4883"/><text fill="#000000" font-family="sans-serif" font-size="14" lengthAdjust="spacing" textLength="208" x="1184" y="108.0234">PROCESS_FILE_MULTI_THREAD</text><rect fill="#E2E2F0" height="30.4883" rx="2.5" ry="2.5" style="stroke:#181818;stroke-width:0.5;" width="222" x="1177" y="778.7871"/><text fill="#000000" font-family="sans-serif" font-size="14" lengthAdjust="spacing" textLength="208" x="1184" y="799.3223">PROCESS_FILE_MULTI_THREAD</text><polygon fill="#181818" points="325.5,146.2871,335.5,150.2871,325.5,154.2871,329.5,150.2871" style="stroke:#181818;stroke-width:1.0;"/><line style="stroke:#181818;stroke-width:1.0;" x1="38.5" x2="331.5" y1="150.2871" y2="150.2871"/><text fill="#000000" font-family="sans-serif" font-size="13" lengthAdjust="spacing" textLength="275" x="45.5" y="145.5449">Runs script with video_path and --function</text><polygon fill="#181818" points="643.5,175.5977,653.5,179.5977,643.5,183.5977,647.5,179.5977" style="stroke:#181818;stroke-width:1.0;"/><line style="stroke:#181818;stroke-width:1.0;" x1="337.5" x2="649.5" y1="179.5977" y2="179.5977"/><text fill="#000000" font-family="sans-serif" font-size="13" lengthAdjust="spacing" textLength="294" x="344.5" y="174.8555">Parses arguments (video_path, function_name)</text><line style="stroke:#181818;stroke-width:1.0;" x1="655.5" x2="697.5" y1="208.9082" y2="208.9082"/><line style="stroke:#181818;stroke-width:1.0;" x1="697.5" x2="697.5" y1="208.9082" y2="221.9082"/><line style="stroke:#181818;stroke-width:1.0;" x1="656.5" x2="697.5" y1="221.9082" y2="221.9082"/><polygon fill="#181818" points="666.5,217.9082,656.5,221.9082,666.5,225.9082,662.5,221.9082" style="stroke:#181818;stroke-width:1.0;"/><text fill="#000000" font-family="sans-serif" font-size="13" lengthAdjust="spacing" textLength="155" x="662.5" y="204.166">Validates function_name</text><path d="M10,236.9082 L72,236.9082 L72,244.2188 L62,254.2188 L10,254.2188 L10,236.9082 " fill="#EEEEEE" style="stroke:#000000;stroke-width:1.5;"/><rect fill="none" height="467.2578" style="stroke:#000000;stroke-width:1.5;" width="1399" x="10" y="236.9082"/><text fill="#000000" font-family="sans-serif" font-size="13" font-weight="bold" lengthAdjust="spacing" textLength="17" x="25" y="250.4766">alt</text><text fill="#000000" font-family="sans-serif" font-size="11" font-weight="bold" lengthAdjust="spacing" textLength="221" x="87" y="249.543">[function_name == "PROCESS_VIDEO"]</text><polygon fill="#181818" points="880.5,271.5293,890.5,275.5293,880.5,279.5293,884.5,275.5293" style="stroke:#181818;stroke-width:1.0;"/><line style="stroke:#181818;stroke-width:1.0;" x1="655.5" x2="886.5" y1="275.5293" y2="275.5293"/><text fill="#000000" font-family="sans-serif" font-size="13" lengthAdjust="spacing" textLength="213" x="662.5" y="270.7871">Calls PROCESS_VIDEO(video_path)</text><polygon fill="#181818" points="49.5,300.8398,39.5,304.8398,49.5,308.8398,45.5,304.8398" style="stroke:#181818;stroke-width:1.0;"/><line style="stroke:#181818;stroke-width:1.0;" x1="43.5" x2="891.5" y1="304.8398" y2="304.8398"/><text fill="#000000" font-family="sans-serif" font-size="13" lengthAdjust="spacing" textLength="213" x="55.5" y="300.0977">Stream Videoframe for Debugging</text><line style="stroke:#000000;stroke-width:1.0;stroke-dasharray:2.0,2.0;" x1="10" x2="1409" y1="313.8398" y2="313.8398"/><text fill="#000000" font-family="sans-serif" font-size="11" font-weight="bold" lengthAdjust="spacing" textLength="207" x="15" y="324.4746">[function_name == "PROCESS_FILE"]</text><polygon fill="#181818" points="1008,345.1055,1018,349.1055,1008,353.1055,1012,349.1055" style="stroke:#181818;stroke-width:1.0;"/><line style="stroke:#181818;stroke-width:1.0;" x1="655.5" x2="1014" y1="349.1055" y2="349.1055"/><text fill="#000000" font-family="sans-serif" font-size="13" lengthAdjust="spacing" textLength="199" x="662.5" y="344.3633">Calls PROCESS_FILE(video_path)</text><line style="stroke:#181818;stroke-width:1.0;" x1="1020" x2="1062" y1="378.416" y2="378.416"/><line style="stroke:#181818;stroke-width:1.0;" x1="1062" x2="1062" y1="378.416" y2="391.416"/><line style="stroke:#181818;stroke-width:1.0;" x1="1021" x2="1062" y1="391.416" y2="391.416"/><polygon fill="#181818" points="1031,387.416,1021,391.416,1031,395.416,1027,391.416" style="stroke:#181818;stroke-width:1.0;"/><text fill="#000000" font-family="sans-serif" font-size="13" lengthAdjust="spacing" textLength="179" x="1027" y="373.6738">fetch_score_coords(filepath)</text><line style="stroke:#181818;stroke-width:1.0;" x1="1020" x2="1062" y1="420.7266" y2="420.7266"/><line style="stroke:#181818;stroke-width:1.0;" x1="1062" x2="1062" y1="420.7266" y2="433.7266"/><line style="stroke:#181818;stroke-width:1.0;" x1="1021" x2="1062" y1="433.7266" y2="433.7266"/><polygon fill="#181818" points="1031,429.7266,1021,433.7266,1031,437.7266,1027,433.7266" style="stroke:#181818;stroke-width:1.0;"/><text fill="#000000" font-family="sans-serif" font-size="13" lengthAdjust="spacing" textLength="223" x="1027" y="415.9844">analyze_segment(filepath, cords, 0)</text><line style="stroke:#181818;stroke-width:1.0;" x1="1020" x2="1062" y1="493.6582" y2="493.6582"/><line style="stroke:#181818;stroke-width:1.0;" x1="1062" x2="1062" y1="493.6582" y2="506.6582"/><line style="stroke:#181818;stroke-width:1.0;" x1="1021" x2="1062" y1="506.6582" y2="506.6582"/><polygon fill="#181818" points="1031,502.6582,1021,506.6582,1031,510.6582,1027,506.6582" style="stroke:#181818;stroke-width:1.0;"/><text fill="#000000" font-family="sans-serif" font-size="13" lengthAdjust="spacing" textLength="44" x="1027" y="458.2949">print(f"</text><text fill="#000000" font-family="sans-serif" font-size="13" lengthAdjust="spacing" textLength="68" x="1027" y="473.6055">Completed</text><text fill="#000000" font-family="sans-serif" font-size="13" lengthAdjust="spacing" textLength="222" x="1059" y="488.916">Total Shots Detected {len(results)}")</text><line style="stroke:#181818;stroke-width:1.0;" x1="1020" x2="1062" y1="535.9688" y2="535.9688"/><line style="stroke:#181818;stroke-width:1.0;" x1="1062" x2="1062" y1="535.9688" y2="548.9688"/><line style="stroke:#181818;stroke-width:1.0;" x1="1021" x2="1062" y1="548.9688" y2="548.9688"/><polygon fill="#181818" points="1031,544.9688,1021,548.9688,1031,552.9688,1027,548.9688" style="stroke:#181818;stroke-width:1.0;"/><text fill="#000000" font-family="sans-serif" font-size="13" lengthAdjust="spacing" textLength="206" x="1027" y="531.2266">process_results(filepath, results)</text><polygon fill="#181818" points="666.5,574.2793,656.5,578.2793,666.5,582.2793,662.5,578.2793" style="stroke:#181818;stroke-width:1.0;"/><line style="stroke:#181818;stroke-width:1.0;stroke-dasharray:2.0,2.0;" x1="660.5" x2="1019" y1="578.2793" y2="578.2793"/><text fill="#000000" font-family="sans-serif" font-size="13" lengthAdjust="spacing" textLength="48" x="672.5" y="573.5371">Returns</text><line style="stroke:#000000;stroke-width:1.0;stroke-dasharray:2.0,2.0;" x1="10" x2="1409" y1="587.2793" y2="587.2793"/><text fill="#000000" font-family="sans-serif" font-size="11" font-weight="bold" lengthAdjust="spacing" textLength="304" x="15" y="597.9141">[function_name == "PROCESS_FILE_MULTI_THREAD"]</text><polygon fill="#181818" points="1276,618.5449,1286,622.5449,1276,626.5449,1280,622.5449" style="stroke:#181818;stroke-width:1.0;"/><line style="stroke:#181818;stroke-width:1.0;" x1="655.5" x2="1282" y1="622.5449" y2="622.5449"/><text fill="#000000" font-family="sans-serif" font-size="13" lengthAdjust="spacing" textLength="304" x="662.5" y="617.8027">Calls PROCESS_FILE_MULTI_THREAD(video_path)</text><polygon fill="#181818" points="666.5,647.8555,656.5,651.8555,666.5,655.8555,662.5,651.8555" style="stroke:#181818;stroke-width:1.0;"/><line style="stroke:#181818;stroke-width:1.0;stroke-dasharray:2.0,2.0;" x1="660.5" x2="1287" y1="651.8555" y2="651.8555"/><text fill="#000000" font-family="sans-serif" font-size="13" lengthAdjust="spacing" textLength="48" x="672.5" y="647.1133">Returns</text><line style="stroke:#000000;stroke-width:1.0;stroke-dasharray:2.0,2.0;" x1="10" x2="1409" y1="660.8555" y2="660.8555"/><line style="stroke:#181818;stroke-width:1.0;" x1="655.5" x2="697.5" y1="683.166" y2="683.166"/><line style="stroke:#181818;stroke-width:1.0;" x1="697.5" x2="697.5" y1="683.166" y2="696.166"/><line style="stroke:#181818;stroke-width:1.0;" x1="656.5" x2="697.5" y1="696.166" y2="696.166"/><polygon fill="#181818" points="666.5,692.166,656.5,696.166,666.5,700.166,662.5,696.166" style="stroke:#181818;stroke-width:1.0;"/><text fill="#000000" font-family="sans-serif" font-size="13" lengthAdjust="spacing" textLength="198" x="662.5" y="678.4238">Prints error (Unknown function)</text><polygon fill="#181818" points="348.5,728.4766,338.5,732.4766,348.5,736.4766,344.5,732.4766" style="stroke:#181818;stroke-width:1.0;"/><line style="stroke:#181818;stroke-width:1.0;stroke-dasharray:2.0,2.0;" x1="342.5" x2="654.5" y1="732.4766" y2="732.4766"/><text fill="#000000" font-family="sans-serif" font-size="13" lengthAdjust="spacing" textLength="94" x="354.5" y="727.7344">Returns output</text><polygon fill="#181818" points="49.5,757.7871,39.5,761.7871,49.5,765.7871,45.5,761.7871" style="stroke:#181818;stroke-width:1.0;"/><line style="stroke:#181818;stroke-width:1.0;stroke-dasharray:2.0,2.0;" x1="43.5" x2="336.5" y1="761.7871" y2="761.7871"/><text fill="#000000" font-family="sans-serif" font-size="13" lengthAdjust="spacing" textLength="100" x="55.5" y="757.0449">Displays output</text><!--SRC=[ZPDHY-8m58NVyoikFYmAkkopC0EBrHt1POgjVH9A9htMi37f9hSpkCl-zqrQfrfrbXKAadxdvkJab2GfX0H_rgW5GYHvQVa15iP29Wiq45iZq3cfI_W4JxBSA_yGV4EDbfCq6bRuYWgMZ751NhPnQ5d5BKaXAwu91ZDpE71Tm4fg701tC5ij-yHhs2glsgsC_LmT6ouHLbRKH-FrysoU97csZERF3HLdzud5SZLlWSN7GFvziqgNUVgqdd-DJdJAM3W4J1w3qociQ-t0DLxWJT8UJdQv_nlEDPdiQYr25ippGTOQdqBChKC7t9Rr0JKv69wbOtXNvPeVSCHQqQKyuqeMdFo47igueluAF3nS9yF0_yuZusmACwwKFzybTk5dr2ZYBD3X-5D8oABlGjE3dGtRxFpzHlXIbwNl0qFby1y-clolRIokRGJgriLYykZH7PBOvquOYxamnXPkk9CARpYkkJh-mjnX6MBke36881h3bnvUMHcWmLRxPbOA2Okjtb9gY2j8ziRVK-GNXL-7tmhrqAAh5RdHdy7LdAQl-UdrnRRlWXFj6tA-r3LIRRNxd_JwvRo9ChsNPKzp9zZqGpDNyxiEXxGSeBN-yeSR_KERDzqP7p7KHLVTxejfnuAfgQgf_IgwMaNILOeVkxT_0G00]--></g></svg>