<?xml version="1.0" encoding="us-ascii" standalone="no"?><svg xmlns="http://www.w3.org/2000/svg" xmlns:xlink="http://www.w3.org/1999/xlink" contentStyleType="text/css" height="578px" preserveAspectRatio="none" style="width:1092px;height:578px;background:#FFFFFF;" version="1.1" viewBox="0 0 1092 578" width="1092px" zoomAndPan="magnify"><defs/><g><text fill="#000000" font-family="sans-serif" font-size="14" font-weight="bold" lengthAdjust="spacing" textLength="145" x="466.5" y="23.5352">ERD For Clip Genius</text><!--class Sports--><g id="elem_Sports"><rect codeLine="4" fill="#F1F1F1" height="113.9531" id="Sports" rx="2.5" ry="2.5" style="stroke:#181818;stroke-width:0.5;" width="179" x="7" y="201.9983"/><ellipse cx="70.25" cy="217.9983" fill="#ADD1B2" rx="11" ry="11" style="stroke:#181818;stroke-width:1.0;"/><path d="M73.8643,224.4983 L66.1445,224.4983 L66.1445,212.1052 L73.8643,212.1052 L73.8643,214.2634 L68.5933,214.2634 L68.5933,216.9363 L73.3662,216.9363 L73.3662,219.0945 L68.5933,219.0945 L68.5933,222.3401 L73.8643,222.3401 Z " fill="#000000"/><text fill="#000000" font-family="sans-serif" font-size="14" lengthAdjust="spacing" textLength="44" x="90.75" y="223.2893">Sports</text><line style="stroke:#181818;stroke-width:0.5;" x1="8" x2="185" y1="233.9983" y2="233.9983"/><ellipse cx="18" cy="247.7424" fill="#000000" rx="3" ry="3" style="stroke:#000000;stroke-width:1.0;"/><text fill="#000000" font-family="sans-serif" font-size="14" lengthAdjust="spacing" textLength="121" x="27" y="251.5334">SportID : INT &#171;PK&#187;</text><line style="stroke:#181818;stroke-width:1.0;" x1="8" x2="185" y1="258.4866" y2="258.4866"/><text fill="#000000" font-family="sans-serif" font-size="14" lengthAdjust="spacing" textLength="155" x="13" y="276.0217">Name : VARCHAR(100)</text><text fill="#000000" font-family="sans-serif" font-size="14" lengthAdjust="spacing" textLength="125" x="13" y="292.51">Description : TEXT</text><text fill="#000000" font-family="sans-serif" font-size="14" lengthAdjust="spacing" textLength="167" x="13" y="308.9983">CreatedDate : DATETIME</text></g><!--class Users--><g id="elem_Users"><rect codeLine="12" fill="#F1F1F1" height="179.9063" id="Users" rx="2.5" ry="2.5" style="stroke:#181818;stroke-width:0.5;" width="227" x="575" y="392.0183"/><ellipse cx="665.25" cy="408.0183" fill="#ADD1B2" rx="11" ry="11" style="stroke:#181818;stroke-width:1.0;"/><path d="M668.8643,414.5183 L661.1445,414.5183 L661.1445,402.1252 L668.8643,402.1252 L668.8643,404.2834 L663.5933,404.2834 L663.5933,406.9563 L668.3662,406.9563 L668.3662,409.1145 L663.5933,409.1145 L663.5933,412.3601 L668.8643,412.3601 Z " fill="#000000"/><text fill="#000000" font-family="sans-serif" font-size="14" lengthAdjust="spacing" textLength="38" x="685.75" y="413.3093">Users</text><line style="stroke:#181818;stroke-width:0.5;" x1="576" x2="801" y1="424.0183" y2="424.0183"/><ellipse cx="586" cy="437.7624" fill="#000000" rx="3" ry="3" style="stroke:#000000;stroke-width:1.0;"/><text fill="#000000" font-family="sans-serif" font-size="14" lengthAdjust="spacing" textLength="115" x="595" y="441.5534">UserID : INT &#171;PK&#187;</text><line style="stroke:#181818;stroke-width:1.0;" x1="576" x2="801" y1="448.5066" y2="448.5066"/><text fill="#000000" font-family="sans-serif" font-size="14" lengthAdjust="spacing" textLength="185" x="581" y="466.0417">Username : VARCHAR(100)</text><text fill="#000000" font-family="sans-serif" font-size="14" lengthAdjust="spacing" textLength="153" x="581" y="482.53">Email : VARCHAR(255)</text><text fill="#000000" font-family="sans-serif" font-size="14" lengthAdjust="spacing" textLength="215" x="581" y="499.0183">PasswordHash : VARCHAR(255)</text><text fill="#000000" font-family="sans-serif" font-size="14" lengthAdjust="spacing" textLength="196" x="581" y="515.5066">RegistrationDate : DATETIME</text><text fill="#000000" font-family="sans-serif" font-size="14" lengthAdjust="spacing" textLength="178" x="581" y="531.9948">LastLoginDate : DATETIME</text><text fill="#000000" font-family="sans-serif" font-size="14" lengthAdjust="spacing" textLength="173" x="581" y="548.4831">ModifiedDate : DATETIME</text><text fill="#000000" font-family="sans-serif" font-size="14" lengthAdjust="spacing" textLength="199" x="581" y="564.9714">Role : ENUM('admin', 'viewer')</text></g><!--class Matches--><g id="elem_Matches"><rect codeLine="24" fill="#F1F1F1" height="130.4414" id="Matches" rx="2.5" ry="2.5" style="stroke:#181818;stroke-width:0.5;" width="214" x="270" y="193.7583"/><ellipse cx="344.75" cy="209.7583" fill="#ADD1B2" rx="11" ry="11" style="stroke:#181818;stroke-width:1.0;"/><path d="M348.3643,216.2583 L340.6445,216.2583 L340.6445,203.8652 L348.3643,203.8652 L348.3643,206.0234 L343.0933,206.0234 L343.0933,208.6963 L347.8662,208.6963 L347.8662,210.8545 L343.0933,210.8545 L343.0933,214.1001 L348.3643,214.1001 Z " fill="#000000"/><text fill="#000000" font-family="sans-serif" font-size="14" lengthAdjust="spacing" textLength="56" x="365.25" y="215.0493">Matches</text><line style="stroke:#181818;stroke-width:0.5;" x1="271" x2="483" y1="225.7583" y2="225.7583"/><ellipse cx="281" cy="239.5024" fill="#000000" rx="3" ry="3" style="stroke:#000000;stroke-width:1.0;"/><text fill="#000000" font-family="sans-serif" font-size="14" lengthAdjust="spacing" textLength="125" x="290" y="243.2934">MatchID : INT &#171;PK&#187;</text><line style="stroke:#181818;stroke-width:1.0;" x1="271" x2="483" y1="250.2466" y2="250.2466"/><text fill="#000000" font-family="sans-serif" font-size="14" lengthAdjust="spacing" textLength="80" x="276" y="267.7817">Date : DATE</text><text fill="#000000" font-family="sans-serif" font-size="14" lengthAdjust="spacing" textLength="121" x="276" y="284.27">SportID : INT &#171;FK&#187;</text><text fill="#000000" font-family="sans-serif" font-size="14" lengthAdjust="spacing" textLength="202" x="276" y="300.7583">Team1Name : VARCHAR(255)</text><text fill="#000000" font-family="sans-serif" font-size="14" lengthAdjust="spacing" textLength="202" x="276" y="317.2466">Team2Name : VARCHAR(255)</text></g><!--class Videos--><g id="elem_Videos"><rect codeLine="33" fill="#F1F1F1" height="196.3945" id="Videos" rx="2.5" ry="2.5" style="stroke:#181818;stroke-width:0.5;" width="241" x="568" y="160.7783"/><ellipse cx="661.25" cy="176.7783" fill="#ADD1B2" rx="11" ry="11" style="stroke:#181818;stroke-width:1.0;"/><path d="M664.8643,183.2783 L657.1445,183.2783 L657.1445,170.8852 L664.8643,170.8852 L664.8643,173.0434 L659.5933,173.0434 L659.5933,175.7163 L664.3662,175.7163 L664.3662,177.8745 L659.5933,177.8745 L659.5933,181.1201 L664.8643,181.1201 Z " fill="#000000"/><text fill="#000000" font-family="sans-serif" font-size="14" lengthAdjust="spacing" textLength="46" x="681.75" y="182.0693">Videos</text><line style="stroke:#181818;stroke-width:0.5;" x1="569" x2="808" y1="192.7783" y2="192.7783"/><ellipse cx="579" cy="206.5224" fill="#000000" rx="3" ry="3" style="stroke:#000000;stroke-width:1.0;"/><text fill="#000000" font-family="sans-serif" font-size="14" lengthAdjust="spacing" textLength="123" x="588" y="210.3134">VideoID : INT &#171;PK&#187;</text><line style="stroke:#181818;stroke-width:1.0;" x1="569" x2="808" y1="217.2666" y2="217.2666"/><text fill="#000000" font-family="sans-serif" font-size="14" lengthAdjust="spacing" textLength="125" x="574" y="234.8017">MatchID : INT &#171;FK&#187;</text><text fill="#000000" font-family="sans-serif" font-size="14" lengthAdjust="spacing" textLength="218" x="574" y="251.29">VideoFilePath : VARCHAR(1024)</text><text fill="#000000" font-family="sans-serif" font-size="14" lengthAdjust="spacing" textLength="229" x="574" y="267.7783">ThumbnailPath : VARCHAR(1024)</text><text fill="#000000" font-family="sans-serif" font-size="14" lengthAdjust="spacing" textLength="109" x="574" y="284.2666">FileSize : BIGINT</text><text fill="#000000" font-family="sans-serif" font-size="14" lengthAdjust="spacing" textLength="95" x="574" y="300.7548">Duration : INT</text><text fill="#000000" font-family="sans-serif" font-size="14" lengthAdjust="spacing" textLength="96" x="574" y="317.2431">Views : BIGINT</text><text fill="#000000" font-family="sans-serif" font-size="14" lengthAdjust="spacing" textLength="167" x="574" y="333.7314">CreatedDate : DATETIME</text><text fill="#000000" font-family="sans-serif" font-size="14" lengthAdjust="spacing" textLength="173" x="574" y="350.2197">ModifiedDate : DATETIME</text></g><!--class Tags--><g id="elem_Tags"><rect codeLine="46" fill="#F1F1F1" height="80.9766" id="Tags" rx="2.5" ry="2.5" style="stroke:#181818;stroke-width:0.5;" width="193" x="592" y="44.4883"/><ellipse cx="667.75" cy="60.4883" fill="#ADD1B2" rx="11" ry="11" style="stroke:#181818;stroke-width:1.0;"/><path d="M671.3643,66.9883 L663.6445,66.9883 L663.6445,54.5952 L671.3643,54.5952 L671.3643,56.7534 L666.0933,56.7534 L666.0933,59.4263 L670.8662,59.4263 L670.8662,61.5845 L666.0933,61.5845 L666.0933,64.8301 L671.3643,64.8301 Z " fill="#000000"/><text fill="#000000" font-family="sans-serif" font-size="14" lengthAdjust="spacing" textLength="33" x="688.25" y="65.7793">Tags</text><line style="stroke:#181818;stroke-width:0.5;" x1="593" x2="784" y1="76.4883" y2="76.4883"/><ellipse cx="603" cy="90.2324" fill="#000000" rx="3" ry="3" style="stroke:#000000;stroke-width:1.0;"/><text fill="#000000" font-family="sans-serif" font-size="14" lengthAdjust="spacing" textLength="110" x="612" y="94.0234">TagID : INT &#171;PK&#187;</text><line style="stroke:#181818;stroke-width:1.0;" x1="593" x2="784" y1="100.9766" y2="100.9766"/><text fill="#000000" font-family="sans-serif" font-size="14" lengthAdjust="spacing" textLength="181" x="598" y="118.5117">TagName : VARCHAR(100)</text></g><!--class VideoTags--><g id="elem_VideoTags"><rect codeLine="52" fill="#F1F1F1" height="97.4648" id="VideoTags" rx="2.5" ry="2.5" style="stroke:#181818;stroke-width:0.5;" width="175" x="901.5" y="62.2383"/><ellipse cx="948.75" cy="78.2383" fill="#ADD1B2" rx="11" ry="11" style="stroke:#181818;stroke-width:1.0;"/><path d="M952.3643,84.7383 L944.6445,84.7383 L944.6445,72.3452 L952.3643,72.3452 L952.3643,74.5034 L947.0933,74.5034 L947.0933,77.1763 L951.8662,77.1763 L951.8662,79.3345 L947.0933,79.3345 L947.0933,82.5801 L952.3643,82.5801 Z " fill="#000000"/><text fill="#000000" font-family="sans-serif" font-size="14" lengthAdjust="spacing" textLength="72" x="969.25" y="83.5293">VideoTags</text><line style="stroke:#181818;stroke-width:0.5;" x1="902.5" x2="1075.5" y1="94.2383" y2="94.2383"/><ellipse cx="912.5" cy="107.9824" fill="#000000" rx="3" ry="3" style="stroke:#000000;stroke-width:1.0;"/><text fill="#000000" font-family="sans-serif" font-size="14" lengthAdjust="spacing" textLength="149" x="921.5" y="111.7734">VideoTagID : INT &#171;PK&#187;</text><line style="stroke:#181818;stroke-width:1.0;" x1="902.5" x2="1075.5" y1="118.7266" y2="118.7266"/><text fill="#000000" font-family="sans-serif" font-size="14" lengthAdjust="spacing" textLength="123" x="907.5" y="136.2617">VideoID : INT &#171;FK&#187;</text><text fill="#000000" font-family="sans-serif" font-size="14" lengthAdjust="spacing" textLength="110" x="907.5" y="152.75">TagID : INT &#171;FK&#187;</text></g><!--class Comments--><g id="elem_Comments"><rect codeLine="59" fill="#F1F1F1" height="146.9297" id="Comments" rx="2.5" ry="2.5" style="stroke:#181818;stroke-width:0.5;" width="192" x="893" y="392.5083"/><ellipse cx="947.75" cy="408.5083" fill="#ADD1B2" rx="11" ry="11" style="stroke:#181818;stroke-width:1.0;"/><path d="M951.3643,415.0083 L943.6445,415.0083 L943.6445,402.6152 L951.3643,402.6152 L951.3643,404.7734 L946.0933,404.7734 L946.0933,407.4463 L950.8662,407.4463 L950.8662,409.6045 L946.0933,409.6045 L946.0933,412.8501 L951.3643,412.8501 Z " fill="#000000"/><text fill="#000000" font-family="sans-serif" font-size="14" lengthAdjust="spacing" textLength="74" x="968.25" y="413.7993">Comments</text><line style="stroke:#181818;stroke-width:0.5;" x1="894" x2="1084" y1="424.5083" y2="424.5083"/><ellipse cx="904" cy="438.2524" fill="#000000" rx="3" ry="3" style="stroke:#000000;stroke-width:1.0;"/><text fill="#000000" font-family="sans-serif" font-size="14" lengthAdjust="spacing" textLength="151" x="913" y="442.0434">CommentID : INT &#171;PK&#187;</text><line style="stroke:#181818;stroke-width:1.0;" x1="894" x2="1084" y1="448.9966" y2="448.9966"/><text fill="#000000" font-family="sans-serif" font-size="14" lengthAdjust="spacing" textLength="123" x="899" y="466.5317">VideoID : INT &#171;FK&#187;</text><text fill="#000000" font-family="sans-serif" font-size="14" lengthAdjust="spacing" textLength="115" x="899" y="483.02">UserID : INT &#171;FK&#187;</text><text fill="#000000" font-family="sans-serif" font-size="14" lengthAdjust="spacing" textLength="114" x="899" y="499.5083">Comment : TEXT</text><text fill="#000000" font-family="sans-serif" font-size="14" lengthAdjust="spacing" textLength="180" x="899" y="515.9966">CommentDate : DATETIME</text><text fill="#000000" font-family="sans-serif" font-size="14" lengthAdjust="spacing" textLength="173" x="899" y="532.4848">ModifiedDate : DATETIME</text></g><!--class Ratings--><g id="elem_Ratings"><rect codeLine="69" fill="#F1F1F1" height="130.4414" id="Ratings" rx="2.5" ry="2.5" style="stroke:#181818;stroke-width:0.5;" width="169" x="904.5" y="220.7583"/><ellipse cx="959.25" cy="236.7583" fill="#ADD1B2" rx="11" ry="11" style="stroke:#181818;stroke-width:1.0;"/><path d="M962.8643,243.2583 L955.1445,243.2583 L955.1445,230.8652 L962.8643,230.8652 L962.8643,233.0234 L957.5933,233.0234 L957.5933,235.6963 L962.3662,235.6963 L962.3662,237.8545 L957.5933,237.8545 L957.5933,241.1001 L962.8643,241.1001 Z " fill="#000000"/><text fill="#000000" font-family="sans-serif" font-size="14" lengthAdjust="spacing" textLength="51" x="979.75" y="242.0493">Ratings</text><line style="stroke:#181818;stroke-width:0.5;" x1="905.5" x2="1072.5" y1="252.7583" y2="252.7583"/><ellipse cx="915.5" cy="266.5024" fill="#000000" rx="3" ry="3" style="stroke:#000000;stroke-width:1.0;"/><text fill="#000000" font-family="sans-serif" font-size="14" lengthAdjust="spacing" textLength="128" x="924.5" y="270.2934">RatingID : INT &#171;PK&#187;</text><line style="stroke:#181818;stroke-width:1.0;" x1="905.5" x2="1072.5" y1="277.2466" y2="277.2466"/><text fill="#000000" font-family="sans-serif" font-size="14" lengthAdjust="spacing" textLength="123" x="910.5" y="294.7817">VideoID : INT &#171;FK&#187;</text><text fill="#000000" font-family="sans-serif" font-size="14" lengthAdjust="spacing" textLength="115" x="910.5" y="311.27">UserID : INT &#171;FK&#187;</text><text fill="#000000" font-family="sans-serif" font-size="14" lengthAdjust="spacing" textLength="111" x="910.5" y="327.7583">Rating : TINYINT</text><text fill="#000000" font-family="sans-serif" font-size="14" lengthAdjust="spacing" textLength="157" x="910.5" y="344.2466">RatingDate : DATETIME</text></g><!--link Sports to Matches--><g id="link_Sports_Matches"><path codeLine="79" d="M194.38,258.9783 C220.97,258.9783 224.38,258.9783 251.96,258.9783 " fill="none" id="Sports-Matches" style="stroke:#181818;stroke-width:1.0;"/><line style="stroke:#181818;stroke-width:1.0;" x1="190.38" x2="190.38" y1="262.9783" y2="254.9783"/><line style="stroke:#181818;stroke-width:1.0;" x1="193.38" x2="193.38" y1="262.9783" y2="254.9783"/><line style="stroke:#181818;stroke-width:1.0;" x1="194.38" x2="186.38" y1="258.9783" y2="258.9783"/><line style="stroke:#181818;stroke-width:1.0;" x1="261.96" x2="269.96" y1="258.9783" y2="252.9783"/><line style="stroke:#181818;stroke-width:1.0;" x1="261.96" x2="269.96" y1="258.9783" y2="264.9783"/><line style="stroke:#181818;stroke-width:1.0;" x1="261.96" x2="269.96" y1="258.9783" y2="258.9783"/><ellipse cx="255.96" cy="258.9783" fill="none" rx="4" ry="4" style="stroke:#181818;stroke-width:1.0;"/><text fill="#000000" font-family="sans-serif" font-size="13" lengthAdjust="spacing" textLength="22" x="217" y="255.5466">1..*</text></g><!--link Matches to Videos--><g id="link_Matches_Videos"><path codeLine="80" d="M492.08,258.9783 C519.03,258.9783 522.17,258.9783 549.74,258.9783 " fill="none" id="Matches-Videos" style="stroke:#181818;stroke-width:1.0;"/><line style="stroke:#181818;stroke-width:1.0;" x1="488.08" x2="488.08" y1="262.9783" y2="254.9783"/><line style="stroke:#181818;stroke-width:1.0;" x1="491.08" x2="491.08" y1="262.9783" y2="254.9783"/><line style="stroke:#181818;stroke-width:1.0;" x1="492.08" x2="484.08" y1="258.9783" y2="258.9783"/><line style="stroke:#181818;stroke-width:1.0;" x1="559.74" x2="567.74" y1="258.9783" y2="252.9783"/><line style="stroke:#181818;stroke-width:1.0;" x1="559.74" x2="567.74" y1="258.9783" y2="264.9783"/><line style="stroke:#181818;stroke-width:1.0;" x1="559.74" x2="567.74" y1="258.9783" y2="258.9783"/><ellipse cx="553.74" cy="258.9783" fill="none" rx="4" ry="4" style="stroke:#181818;stroke-width:1.0;"/><text fill="#000000" font-family="sans-serif" font-size="13" lengthAdjust="spacing" textLength="22" x="515" y="255.5466">1..*</text></g><!--link Videos to VideoTags--><g id="link_Videos_VideoTags"><path codeLine="81" d="M816.3575,196.0748 C847.1775,180.7948 856.4524,176.192 885.2224,161.932 " fill="none" id="Videos-VideoTags" style="stroke:#181818;stroke-width:1.0;"/><line style="stroke:#181818;stroke-width:1.0;" x1="814.5505" x2="810.997" y1="201.4353" y2="194.2678"/><line style="stroke:#181818;stroke-width:1.0;" x1="817.2383" x2="813.6848" y1="200.1027" y2="192.9352"/><line style="stroke:#181818;stroke-width:1.0;" x1="816.3575" x2="809.19" y1="196.0748" y2="199.6283"/><line style="stroke:#181818;stroke-width:1.0;" x1="894.1822" x2="898.6854" y1="157.4911" y2="148.5624"/><line style="stroke:#181818;stroke-width:1.0;" x1="894.1822" x2="904.0146" y1="157.4911" y2="159.3142"/><line style="stroke:#181818;stroke-width:1.0;" x1="894.1822" x2="901.35" y1="157.4911" y2="153.9383"/><ellipse cx="888.8063" cy="160.1556" fill="none" rx="4" ry="4" style="stroke:#181818;stroke-width:1.0;"/><text fill="#000000" font-family="sans-serif" font-size="13" lengthAdjust="spacing" textLength="22" x="840" y="172.6866">1..*</text></g><!--link Tags to VideoTags--><g id="link_Tags_VideoTags"><path codeLine="82" d="M793.1499,94.002 C830.4899,97.252 847.0978,98.7075 883.5178,101.8775 " fill="none" id="Tags-VideoTags" style="stroke:#181818;stroke-width:1.0;"/><line style="stroke:#181818;stroke-width:1.0;" x1="788.8181" x2="789.5118" y1="97.6401" y2="89.6702"/><line style="stroke:#181818;stroke-width:1.0;" x1="791.8068" x2="792.5005" y1="97.9002" y2="89.9303"/><line style="stroke:#181818;stroke-width:1.0;" x1="793.1499" x2="785.18" y1="94.002" y2="93.3083"/><line style="stroke:#181818;stroke-width:1.0;" x1="893.4801" x2="901.9703" y1="102.7446" y2="97.4609"/><line style="stroke:#181818;stroke-width:1.0;" x1="893.4801" x2="900.9297" y1="102.7446" y2="109.4157"/><line style="stroke:#181818;stroke-width:1.0;" x1="893.4801" x2="901.45" y1="102.7446" y2="103.4383"/><ellipse cx="887.5027" cy="102.2243" fill="none" rx="4" ry="4" style="stroke:#181818;stroke-width:1.0;"/><text fill="#000000" font-family="sans-serif" font-size="13" lengthAdjust="spacing" textLength="22" x="840" y="95.3266">1..*</text></g><!--link Videos to Comments--><g id="link_Videos_Comments"><path codeLine="83" d="M815.7647,346.536 C843.5047,365.766 851.2892,371.17 877.8192,389.57 " fill="none" id="Videos-Comments" style="stroke:#181818;stroke-width:1.0;"/><line style="stroke:#181818;stroke-width:1.0;" x1="810.1985" x2="814.7562" y1="347.5445" y2="340.9698"/><line style="stroke:#181818;stroke-width:1.0;" x1="812.664" x2="817.2218" y1="349.2537" y2="342.6789"/><line style="stroke:#181818;stroke-width:1.0;" x1="815.7647" x2="809.19" y1="346.536" y2="341.9783"/><line style="stroke:#181818;stroke-width:1.0;" x1="886.0363" x2="896.0294" y1="395.2691" y2="394.898"/><line style="stroke:#181818;stroke-width:1.0;" x1="886.0363" x2="889.1906" y1="395.2691" y2="404.7586"/><line style="stroke:#181818;stroke-width:1.0;" x1="886.0363" x2="892.61" y1="395.2691" y2="399.8283"/><ellipse cx="881.106" cy="391.8496" fill="none" rx="4" ry="4" style="stroke:#181818;stroke-width:1.0;"/><text fill="#000000" font-family="sans-serif" font-size="13" lengthAdjust="spacing" textLength="22" x="840" y="365.2466">1..*</text></g><!--link Users to Comments--><g id="link_Users_Comments"><path codeLine="84" d="M810.3386,475.5009 C840.0586,473.9109 845.8659,473.5927 874.5659,472.0527 " fill="none" id="Users-Comments" style="stroke:#181818;stroke-width:1.0;"/><line style="stroke:#181818;stroke-width:1.0;" x1="806.558" x2="806.1306" y1="479.7089" y2="471.7203"/><line style="stroke:#181818;stroke-width:1.0;" x1="809.5537" x2="809.1263" y1="479.5486" y2="471.56"/><line style="stroke:#181818;stroke-width:1.0;" x1="810.3386" x2="802.35" y1="475.5009" y2="475.9283"/><line style="stroke:#181818;stroke-width:1.0;" x1="884.5515" x2="892.2185" y1="471.5169" y2="465.0969"/><line style="stroke:#181818;stroke-width:1.0;" x1="884.5515" x2="892.8615" y1="471.5169" y2="477.0797"/><line style="stroke:#181818;stroke-width:1.0;" x1="884.5515" x2="892.54" y1="471.5169" y2="471.0883"/><ellipse cx="878.5601" cy="471.8384" fill="none" rx="4" ry="4" style="stroke:#181818;stroke-width:1.0;"/><text fill="#000000" font-family="sans-serif" font-size="13" lengthAdjust="spacing" textLength="22" x="840" y="469.5866">1..*</text></g><!--link Videos to Ratings--><g id="link_Videos_Ratings"><path codeLine="85" d="M817.1574,270.5201 C848.9474,273.4001 856.7136,274.0919 886.1436,276.7619 " fill="none" id="Videos-Ratings" style="stroke:#181818;stroke-width:1.0;"/><line style="stroke:#181818;stroke-width:1.0;" x1="812.8128" x2="813.5346" y1="274.1429" y2="266.1755"/><line style="stroke:#181818;stroke-width:1.0;" x1="815.8005" x2="816.5223" y1="274.4135" y2="266.4462"/><line style="stroke:#181818;stroke-width:1.0;" x1="817.1574" x2="809.19" y1="270.5201" y2="269.7983"/><line style="stroke:#181818;stroke-width:1.0;" x1="896.1027" x2="904.6121" y1="277.6655" y2="272.4128"/><line style="stroke:#181818;stroke-width:1.0;" x1="896.1027" x2="903.5279" y1="277.6655" y2="284.3637"/><line style="stroke:#181818;stroke-width:1.0;" x1="896.1027" x2="904.07" y1="277.6655" y2="278.3883"/><ellipse cx="890.1273" cy="277.1233" fill="none" rx="4" ry="4" style="stroke:#181818;stroke-width:1.0;"/><text fill="#000000" font-family="sans-serif" font-size="13" lengthAdjust="spacing" textLength="22" x="840" y="269.8566">1..*</text></g><!--link Users to Ratings--><g id="link_Users_Ratings"><path codeLine="86" d="M809.656,435.6853 C830.536,425.7653 844.39,417.7483 863,404.9783 C878.55,394.3083 879.45,388.0883 893,374.9783 C900.88,367.3483 896.1095,371.7942 904.3895,363.9542 " fill="none" id="Users-Ratings" style="stroke:#181818;stroke-width:1.0;"/><line style="stroke:#181818;stroke-width:1.0;" x1="807.7595" x2="804.3265" y1="441.0147" y2="433.7888"/><line style="stroke:#181818;stroke-width:1.0;" x1="810.4692" x2="807.0362" y1="439.7274" y2="432.5014"/><line style="stroke:#181818;stroke-width:1.0;" x1="809.656" x2="802.43" y1="435.6853" y2="439.1183"/><line style="stroke:#181818;stroke-width:1.0;" x1="911.6509" x2="913.3347" y1="357.0787" y2="347.2215"/><line style="stroke:#181818;stroke-width:1.0;" x1="911.6509" x2="921.5853" y1="357.0787" y2="355.9351"/><line style="stroke:#181818;stroke-width:1.0;" x1="911.6509" x2="917.46" y1="357.0787" y2="351.5783"/><ellipse cx="907.2941" cy="361.204" fill="none" rx="4" ry="4" style="stroke:#181818;stroke-width:1.0;"/><text fill="#000000" font-family="sans-serif" font-size="13" lengthAdjust="spacing" textLength="22" x="840" y="401.5466">1..*</text></g><!--SRC=[hLJ1RgCm4Btp5LOkjDMcQgBjfQegPGDfqJPHH6crU_I6IHW9S6Gx6-ss_VUrZI64u4EhlI3FUvwPDtxO4cKEP1360PanJgOvRiazbBWJ0o-7jIII4OwRJ98KEQmaijA3KgByGvwsZ4j1NZr2Bimw2iWDYHO9kRrTVh-xK_Xmg3uBMe0YNYRnz64IduskhiuL6e1OSTpgWefCmX-90gSSg8GqK1y51fCaJA9vwBrxTSzd0Tosr4j7HqsLlLt3WcBUWiVNrnfUKY7sZASFL6IdR0mR599JhRKhZP17AkGZss0FDMSfhl5q7bMIvHe95y_pCv-c1PR-5-B_HjW3zyzR0y-fN6LWHpQ1O-PM3nLr_PXLEnEWnQZZXnrIK-C-wg3b1LDWLefPEwHqPThc9cM6EIofp8wi6Nyr2h9TyQjK_ZXudVg4VxN0Rz6zAgsdtbMsLBrC4zYBzWx7B-Ksvp1lGZTsMhLopAgOll-xSsY7IdNeADSzrjgtemG37ZfCML6efMrWeu_LxzmbYzfIhUjP0PyvorZPLDQ7K0N_Gs9LIIkC5ZyhmokeHucltfmrba0uvEQd4HbkXMUViRUtuP2zDlVjXWn6bvSN0wy6B6_lG4FRkCqQiviD9dBJn_cDbGrVFNXE-ZYzFkJ-x1Fs7m00]--></g></svg>